<svg width="834" height="738" viewBox="0 0 834 738" fill="none" xmlns="http://www.w3.org/2000/svg">
<g clip-path="url(#clip0)">
<path opacity="0.1" d="M558.187 97.7717C508.183 95.797 460.558 77.4629 415.081 57.3999C369.604 37.3369 324.56 15.106 275.754 4.47773C244.362 -2.35915 208.458 -3.32456 183.17 15.7906C158.824 34.2212 150.959 65.9482 146.733 95.4196C143.55 117.589 141.68 140.926 150.395 161.673C156.452 176.084 167.192 188.196 174.625 202.001C200.484 250.026 182.204 309.25 154.189 356.142C141.054 378.145 125.795 399.147 115.65 422.545C105.505 445.943 100.816 472.791 109.693 496.68C118.486 520.377 139.447 538.14 162.154 550.647C208.272 576.055 262.596 583.322 315.606 587.438C432.913 596.557 550.839 592.607 668.456 588.658C711.986 587.192 755.701 585.709 798.52 578.064C822.302 573.817 846.848 567.085 864.116 550.813C886.028 530.162 891.459 495.197 876.772 469.298C852.14 425.863 784.057 415.076 766.819 368.465C757.347 342.802 767.074 314.226 780.85 290.424C810.395 239.38 859.913 194.594 862.517 136.248C864.309 96.1744 840.505 56.0395 803.697 37.0736C765.12 17.2036 711.615 19.6961 683.167 52.5992C653.846 86.4764 602.343 99.5094 558.187 97.7717Z" fill="#38D39F"/>
<path opacity="0.1" d="M476 642C654.94 642 800 627.897 800 610.5C800 593.103 654.94 579 476 579C297.06 579 152 593.103 152 610.5C152 627.897 297.06 642 476 642Z" fill="#38D39F"/>
<path d="M263.342 554.73C263.342 554.73 270.281 541.195 298.039 560.145C298.039 560.145 294.338 569.251 282.078 568.512C269.819 567.774 266.539 561.868 263.342 554.73Z" fill="#38D39F"/>
<path d="M261.516 553.755C261.516 553.755 247.117 551.997 245.721 587.067C245.721 587.067 254.849 589.089 261.334 577.987C267.819 566.886 265.135 560.681 261.516 553.755Z" fill="#38D39F"/>
<path d="M253.123 525.787C253.123 525.787 261.219 501.906 290.604 518.887C290.604 518.887 283.896 540.799 256.13 533.908L253.123 525.787Z" fill="#38D39F"/>
<path d="M244.102 490.093C244.102 490.093 259.368 465.974 286.44 488.335C286.44 488.335 276.956 510.976 246.415 498.671L244.102 490.093Z" fill="#38D39F"/>
<path d="M240.863 456.13C240.863 456.13 258.674 433.981 285.474 456.13C285.474 456.13 268.579 475.572 240.863 461.791V456.13Z" fill="#38D39F"/>
<path d="M238.087 423.152C238.087 423.152 256.13 400.009 281.814 421.921C281.814 421.921 261.45 442.348 238.087 428.566V423.152Z" fill="#38D39F"/>
<path d="M239.707 393.857C239.707 393.857 258.707 364.078 282.739 384.259C282.739 384.259 262.375 409.862 239.707 399.517V393.857Z" fill="#38D39F"/>
<path d="M244.102 359.648C244.102 359.648 264.226 330.115 287.597 352.757C287.597 352.757 263.763 378.352 244.102 365.062V359.648Z" fill="#38D39F"/>
<path d="M250.818 329.069C250.818 329.069 274.635 301.321 295.428 312.369C295.428 312.369 270.595 341.84 249.777 336.426L250.818 329.069Z" fill="#38D39F"/>
<path d="M259.137 300.09C259.137 300.09 286.671 266.119 302.632 277.44C302.632 277.44 282.376 303.808 257.196 306.489L259.137 300.09Z" fill="#38D39F"/>
<path d="M271.157 266.462C271.157 266.462 295.23 238.705 312.81 245.596C312.81 245.596 292.223 274.399 267.927 275.137L271.157 266.462Z" fill="#38D39F"/>
<path d="M282.045 235.013C282.045 235.013 308.646 208.434 320.212 213.11C320.212 213.11 301.013 242.642 280.889 240.92L282.045 235.013Z" fill="#38D39F"/>
<path d="M292.686 205.973C292.686 205.973 315.586 174.225 328.076 176.686C328.076 176.686 314.198 204.988 292.686 209.207V205.973Z" fill="#38D39F"/>
<path d="M304.227 166.842C304.227 166.842 324.475 142.495 335.404 142.557C335.404 142.557 319.427 175.078 303.4 174.779L304.227 166.842Z" fill="#38D39F"/>
<path d="M311.075 140.746L330.621 90.0482C330.621 90.0482 331.604 135.877 308.58 150.151L311.075 140.746Z" fill="#38D39F"/>
<path d="M319.006 84.8361C319.006 84.8361 322.244 42.5059 320.162 39.0605C320.162 39.0605 334.149 74.2184 318.874 103.54L319.006 84.8361Z" fill="#38D39F"/>
<path d="M252.371 525.215C252.371 525.215 232.09 511.847 218.971 544.552C218.971 544.552 237.014 557.297 254.75 533.557L252.371 525.215Z" fill="#38D39F"/>
<path d="M243.457 488.73C243.457 488.73 218.591 476.662 206.521 510.81C206.521 510.81 225.737 524.873 245.721 497.362L243.457 488.73Z" fill="#38D39F"/>
<path d="M239.707 458.161C239.707 458.161 221.895 436.011 195.096 458.161C195.096 458.161 211.982 477.603 239.707 463.821V458.161Z" fill="#38D39F"/>
<path d="M237.484 423.152C237.484 423.152 219.434 400.009 193.758 421.921C193.758 421.921 214.114 442.348 237.484 428.566V423.152Z" fill="#38D39F"/>
<path d="M239.707 394.7C239.707 394.7 227.051 361.344 199.541 375.689C199.541 375.689 214.411 405.274 238.591 400.238L239.707 394.7Z" fill="#38D39F"/>
<path d="M245.696 359.481C245.696 359.481 233.122 325.545 205.216 341.278C205.216 341.278 222.3 372.384 244.457 364.728L245.696 359.481Z" fill="#38D39F"/>
<path d="M253.495 329.245C253.495 329.245 248.538 292.03 225.448 288.699C225.448 288.699 230.347 327.936 250.413 335.943L253.495 329.245Z" fill="#38D39F"/>
<path d="M259.732 300.152C259.732 300.152 257.79 255.326 238.666 253.77C238.666 253.77 239.31 287.785 257.576 306.507L259.732 300.152Z" fill="#38D39F"/>
<path d="M273.148 265.179C273.148 265.179 267.439 227.911 249.19 223.35C249.19 223.35 251.454 259.448 271.339 274.329L273.148 265.179Z" fill="#38D39F"/>
<path d="M284.21 235.286C284.21 235.286 284.011 196.454 272.859 190.749C272.859 190.749 265.944 225.907 280.98 240.243L284.21 235.286Z" fill="#38D39F"/>
<path d="M293.536 205.516C293.536 205.516 291.967 165.524 280.426 159.889C280.426 159.889 276.469 191.532 291.802 208.126L293.536 205.516Z" fill="#38D39F"/>
<path d="M305.846 170.006C305.846 170.006 305.771 137.485 297.527 129.856C297.527 129.856 289.332 165.488 301.542 176.546L305.846 170.006Z" fill="#38D39F"/>
<path d="M310.1 139.146L302.087 85.0119C302.087 85.0119 291.182 129.372 310.48 148.911L310.1 139.146Z" fill="#38D39F"/>
<path d="M311.67 85.3459C311.67 85.3459 291.075 48.9662 291.504 44.9142C291.504 44.9142 293.685 83.0606 319.592 102.046L311.67 85.3459Z" fill="#38D39F"/>
<path d="M314.082 74.6051C314.082 74.6051 294.652 22.9142 285.862 18.7304C285.862 18.7304 313.62 33.7428 315.701 73.1285L314.082 74.6051Z" fill="#38D39F"/>
<path d="M303.293 175.06L301.963 174.629C318.361 117.735 322.459 81.4609 313.487 72.3726L314.446 71.3003C323.946 80.8896 320.096 116.742 303.293 175.06Z" fill="#444053"/>
<path d="M258.137 308.238L256.179 307.5C257.914 302.288 259.79 296.997 261.756 291.776C278.873 246.387 293.446 204.171 302.789 171.755L304.499 170.876C295.139 203.353 280.831 247.195 263.689 292.637C261.731 297.805 259.864 303.079 258.137 308.238Z" fill="#444053"/>
<path d="M271.833 597C271.684 596.708 256.664 567.282 246.2 517.025C240.064 487.612 236.646 456.692 236.072 425.416C235.353 386.314 240.067 342.654 248.142 303L249.019 304.787C230.896 393.796 238.098 470.075 247.647 516.018C258.008 565.811 272.851 594.928 273 595.213L271.833 597Z" fill="#444053"/>
<path d="M290.232 292.786H289.613C288.568 292.786 287.721 293.688 287.721 294.799V327.865C287.721 328.977 288.568 329.878 289.613 329.878H290.232C291.277 329.878 292.124 328.977 292.124 327.865V294.799C292.124 293.688 291.277 292.786 290.232 292.786Z" fill="#3A3768"/>
<path d="M584.426 398.537V562.843L613.968 607.633L616.217 611.04H732.783L735.138 398.537H584.426Z" fill="#2F2E41"/>
<path opacity="0.1" d="M584.426 398.537V562.843L613.968 607.633L615.781 398.537H584.426Z" fill="black"/>
<path d="M303.018 394.156V558.461L273.476 603.251L271.227 606.658H154.66L152.305 394.156H303.018Z" fill="#2F2E41"/>
<path opacity="0.1" d="M303.018 394.156V558.461L273.476 603.251L271.662 394.156H303.018Z" fill="black"/>
<path d="M770.461 390.869V400.728H136.999V386.488L195.87 358.009H718.654L770.461 390.869Z" fill="#2F2E41"/>
<path opacity="0.1" d="M770.461 390.869V400.728H136.999V386.488L770.461 390.869Z" fill="black"/>
<path opacity="0.1" d="M227.661 440.162H199.403L187.629 432.494H240.613L227.661 440.162Z" fill="black"/>
<path opacity="0.1" d="M227.661 471.927H199.403L187.629 464.259H240.613L227.661 471.927Z" fill="black"/>
<path opacity="0.1" d="M227.661 516.838H199.403L187.629 509.17H240.613L227.661 516.838Z" fill="black"/>
<path opacity="0.1" d="M227.661 561.747H199.403L187.629 554.08H240.613L227.661 561.747Z" fill="black"/>
<path opacity="0.1" d="M659.782 444.543H688.04L699.815 436.875H646.83L659.782 444.543Z" fill="black"/>
<path opacity="0.1" d="M659.782 476.308H688.04L699.815 468.641H646.83L659.782 476.308Z" fill="black"/>
<path opacity="0.1" d="M659.782 521.219H688.04L699.815 513.551H646.83L659.782 521.219Z" fill="black"/>
<path opacity="0.1" d="M659.782 566.129H688.04L699.815 558.461H646.83L659.782 566.129Z" fill="black"/>
<path d="M531.98 330.597L528.052 353.925C528.052 353.925 508.717 363.481 522.312 363.762C535.907 364.043 599.956 363.762 599.956 363.762C599.956 363.762 612.342 363.762 592.705 353.644L588.777 329.192L531.98 330.597Z" fill="#3F3D56"/>
<path opacity="0.1" d="M519.577 363.509C522.217 361.523 525.055 359.776 528.052 358.29L531.98 334.962L588.777 335.012L592.705 358.009C595.932 359.559 598.974 361.421 601.781 363.565C604.303 363.03 607.059 361.04 592.705 353.644L588.777 329.192L531.98 330.597L528.052 353.925C528.052 353.925 511.805 361.956 519.577 363.509Z" fill="black"/>
<path d="M679.025 168.005H441.127C436.158 168.005 432.13 171.752 432.13 176.375V325.46C432.13 330.082 436.158 333.83 441.127 333.83H679.025C683.994 333.83 688.023 330.082 688.023 325.46V176.375C688.023 171.752 683.994 168.005 679.025 168.005Z" fill="#292832"/>
<path d="M679.412 176.858H440.741V301.086H679.412V176.858Z" fill="#3F3D56"/>
<path d="M560.076 174.329C560.911 174.329 561.587 173.7 561.587 172.924C561.587 172.148 560.911 171.518 560.076 171.518C559.242 171.518 558.566 172.148 558.566 172.924C558.566 173.7 559.242 174.329 560.076 174.329Z" fill="#F2F2F2"/>
<path d="M688.022 310.923V325.46C688.023 326.559 687.79 327.647 687.338 328.663C686.886 329.678 686.223 330.601 685.388 331.378C684.552 332.156 683.56 332.772 682.469 333.193C681.377 333.613 680.207 333.83 679.025 333.83H441.127C439.946 333.83 438.776 333.613 437.684 333.193C436.593 332.772 435.601 332.156 434.765 331.378C433.93 330.601 433.267 329.678 432.815 328.663C432.363 327.647 432.13 326.559 432.13 325.46V310.923H688.022Z" fill="#292832"/>
<path d="M560.076 327.787C563.247 327.787 565.817 325.396 565.817 322.447C565.817 319.497 563.247 317.107 560.076 317.107C556.906 317.107 554.336 319.497 554.336 322.447C554.336 325.396 556.906 327.787 560.076 327.787Z" fill="#F2F2F2"/>
<path d="M551.131 378.939V381.75H388.593V379.502L388.817 378.939L392.823 368.821H547.808L551.131 378.939Z" fill="#3F3D56"/>
<path d="M613.681 376.188C613.385 377.366 612.268 378.608 609.742 379.783C600.678 383.998 582.249 378.658 582.249 378.658C582.249 378.658 568.05 376.41 568.05 370.508C568.449 370.254 568.864 370.024 569.295 369.819C573.105 367.944 585.74 363.316 608.142 370.015C609.792 370.497 611.266 371.396 612.4 372.611C612.903 373.071 613.281 373.634 613.503 374.256C613.726 374.878 613.787 375.54 613.681 376.188Z" fill="#3F3D56"/>
<path opacity="0.1" d="M613.681 376.188C602.588 380.142 592.7 380.437 582.552 373.88C577.434 370.575 572.784 369.757 569.295 369.819C573.105 367.944 585.74 363.316 608.142 370.015C609.792 370.497 611.267 371.396 612.4 372.611C612.903 373.071 613.281 373.634 613.503 374.256C613.726 374.878 613.787 375.54 613.681 376.188Z" fill="black"/>
<path d="M599.772 373.88C601.941 373.88 603.7 373.377 603.7 372.756C603.7 372.135 601.941 371.632 599.772 371.632C597.603 371.632 595.844 372.135 595.844 372.756C595.844 373.377 597.603 373.88 599.772 373.88Z" fill="#F2F2F2"/>
<path opacity="0.1" d="M551.131 378.939V381.75H388.593V379.502L388.817 378.939H551.131Z" fill="black"/>
<path d="M799.905 533.482C799.905 553.92 786.844 561.056 770.733 561.056C754.622 561.056 741.562 553.92 741.562 533.482C741.562 513.043 770.733 487.043 770.733 487.043C770.733 487.043 799.905 513.043 799.905 533.482Z" fill="#6C63FF"/>
<path d="M769.97 540.825L782.403 519.664L770.016 538.141L770.151 530.451L778.72 515.14L770.186 528.415L770.428 514.582L779.604 502.394L770.465 512.407L770.617 487.043L769.709 519.182L760.417 505.951L769.596 521.894L768.727 537.343L768.701 536.933L757.946 522.953L768.668 538.382L768.56 540.314L768.541 540.343L768.55 540.502L766.344 561.117H769.291L769.644 559.452L780.341 544.06L769.67 557.93L769.97 540.825Z" fill="#3F3D56"/>
<path d="M789.364 605.391H754.586L745.598 558.132H796.398L789.364 605.391Z" fill="#2F2E41"/>
<path d="M292 286H191V365H292V286Z" fill="#3F3D56"/>
<path d="M285 297H197V358H285V297Z" fill="#1DB6B6" fill-opacity="0.28"/>
<path d="M203.073 325V315.758H205.682C206.486 315.758 207.197 315.936 207.814 316.291C208.432 316.646 208.908 317.152 209.243 317.808C209.581 318.464 209.753 319.217 209.757 320.068V320.658C209.757 321.53 209.588 322.294 209.249 322.95C208.915 323.606 208.434 324.109 207.808 324.46C207.186 324.812 206.46 324.992 205.631 325H203.073ZM204.292 316.761V324.003H205.574C206.513 324.003 207.243 323.711 207.764 323.127C208.288 322.543 208.551 321.712 208.551 320.633V320.093C208.551 319.044 208.303 318.229 207.808 317.649C207.317 317.065 206.619 316.769 205.713 316.761H204.292ZM214.27 325.127C213.339 325.127 212.582 324.822 211.998 324.213C211.414 323.599 211.122 322.78 211.122 321.756V321.541C211.122 320.859 211.251 320.252 211.509 319.719C211.771 319.181 212.135 318.762 212.601 318.462C213.07 318.157 213.578 318.005 214.124 318.005C215.017 318.005 215.711 318.299 216.206 318.887C216.701 319.475 216.949 320.318 216.949 321.414V321.902H212.296C212.313 322.579 212.51 323.127 212.886 323.546C213.267 323.961 213.75 324.168 214.333 324.168C214.748 324.168 215.099 324.084 215.387 323.915C215.675 323.745 215.927 323.521 216.143 323.242L216.86 323.8C216.284 324.685 215.421 325.127 214.27 325.127ZM214.124 318.97C213.65 318.97 213.252 319.143 212.931 319.49C212.609 319.833 212.41 320.315 212.334 320.938H215.774V320.849C215.741 320.252 215.58 319.791 215.292 319.465C215.004 319.135 214.615 318.97 214.124 318.97ZM220.491 323.407L222.192 318.132H223.392L220.929 325H220.034L217.545 318.132H218.745L220.491 323.407ZM223.861 324.384C223.861 324.181 223.921 324.012 224.039 323.876C224.162 323.741 224.344 323.673 224.585 323.673C224.826 323.673 225.008 323.741 225.131 323.876C225.258 324.012 225.321 324.181 225.321 324.384C225.321 324.579 225.258 324.742 225.131 324.873C225.008 325.004 224.826 325.07 224.585 325.07C224.344 325.07 224.162 325.004 224.039 324.873C223.921 324.742 223.861 324.579 223.861 324.384ZM227.657 325V319.04H226.572V318.132H227.657V317.548C227.657 316.782 227.875 316.185 228.311 315.758C228.751 315.33 229.371 315.117 230.171 315.117C230.645 315.117 231.244 315.246 231.967 315.504L231.771 316.494C231.242 316.283 230.738 316.177 230.26 316.177C229.756 316.177 229.392 316.291 229.168 316.52C228.948 316.744 228.838 317.082 228.838 317.535V318.132H230.241V319.04H228.838V325H227.657ZM232.551 325H231.371V318.132H232.551V325ZM235.573 318.132L235.611 318.995C236.136 318.335 236.821 318.005 237.667 318.005C239.119 318.005 239.851 318.824 239.864 320.461V325H238.689V320.455C238.685 319.96 238.571 319.594 238.347 319.357C238.127 319.12 237.782 319.001 237.312 319.001C236.931 319.001 236.597 319.103 236.309 319.306C236.021 319.509 235.797 319.776 235.636 320.106V325H234.462V318.132H235.573ZM245.875 325C245.807 324.865 245.752 324.623 245.71 324.276C245.164 324.843 244.512 325.127 243.755 325.127C243.078 325.127 242.521 324.937 242.085 324.556C241.654 324.171 241.438 323.684 241.438 323.096C241.438 322.381 241.709 321.826 242.25 321.433C242.796 321.035 243.562 320.836 244.548 320.836H245.691V320.296C245.691 319.886 245.568 319.56 245.323 319.319C245.077 319.073 244.715 318.951 244.237 318.951C243.818 318.951 243.467 319.056 243.184 319.268C242.9 319.48 242.758 319.736 242.758 320.036H241.578C241.578 319.693 241.698 319.363 241.939 319.046C242.185 318.724 242.515 318.47 242.93 318.284C243.349 318.098 243.808 318.005 244.307 318.005C245.098 318.005 245.718 318.204 246.167 318.602C246.616 318.995 246.848 319.539 246.865 320.233V323.394C246.865 324.025 246.946 324.526 247.106 324.898V325H245.875ZM243.926 324.105C244.294 324.105 244.644 324.01 244.974 323.819C245.304 323.629 245.543 323.381 245.691 323.077V321.667H244.771C243.332 321.667 242.612 322.089 242.612 322.931C242.612 323.299 242.735 323.587 242.98 323.794C243.226 324.001 243.541 324.105 243.926 324.105ZM249.817 318.132L249.855 318.995C250.38 318.335 251.065 318.005 251.912 318.005C253.363 318.005 254.095 318.824 254.108 320.461V325H252.934V320.455C252.929 319.96 252.815 319.594 252.591 319.357C252.371 319.12 252.026 319.001 251.556 319.001C251.175 319.001 250.841 319.103 250.553 319.306C250.265 319.509 250.041 319.776 249.88 320.106V325H248.706V318.132H249.817ZM258.634 324.168C259.053 324.168 259.419 324.042 259.732 323.788C260.045 323.534 260.219 323.216 260.252 322.835H261.363C261.342 323.229 261.207 323.604 260.957 323.959C260.707 324.314 260.373 324.598 259.954 324.81C259.539 325.021 259.099 325.127 258.634 325.127C257.699 325.127 256.954 324.816 256.399 324.194C255.849 323.568 255.574 322.713 255.574 321.629V321.433C255.574 320.764 255.697 320.169 255.942 319.649C256.188 319.128 256.539 318.724 256.996 318.437C257.457 318.149 258.001 318.005 258.627 318.005C259.398 318.005 260.037 318.236 260.544 318.697C261.056 319.158 261.329 319.757 261.363 320.493H260.252C260.219 320.049 260.049 319.685 259.745 319.401C259.444 319.114 259.072 318.97 258.627 318.97C258.031 318.97 257.567 319.186 257.237 319.617C256.911 320.045 256.749 320.665 256.749 321.477V321.699C256.749 322.491 256.911 323.1 257.237 323.527C257.563 323.955 258.029 324.168 258.634 324.168ZM265.534 325.127C264.603 325.127 263.845 324.822 263.261 324.213C262.677 323.599 262.385 322.78 262.385 321.756V321.541C262.385 320.859 262.514 320.252 262.772 319.719C263.035 319.181 263.399 318.762 263.864 318.462C264.334 318.157 264.842 318.005 265.388 318.005C266.281 318.005 266.975 318.299 267.47 318.887C267.965 319.475 268.212 320.318 268.212 321.414V321.902H263.56C263.576 322.579 263.773 323.127 264.15 323.546C264.531 323.961 265.013 324.168 265.597 324.168C266.012 324.168 266.363 324.084 266.651 323.915C266.939 323.745 267.19 323.521 267.406 323.242L268.124 323.8C267.548 324.685 266.685 325.127 265.534 325.127ZM265.388 318.97C264.914 318.97 264.516 319.143 264.194 319.49C263.873 319.833 263.674 320.315 263.598 320.938H267.038V320.849C267.004 320.252 266.843 319.791 266.556 319.465C266.268 319.135 265.879 318.97 265.388 318.97Z" fill="white"/>
<path d="M274.122 322.62C274.122 322.23 273.985 321.902 273.709 321.636C273.439 321.369 272.979 321.128 272.332 320.912C271.431 320.637 270.773 320.279 270.358 319.839C269.947 319.395 269.742 318.832 269.742 318.151C269.742 317.457 269.943 316.888 270.345 316.443C270.751 315.999 271.308 315.735 272.015 315.65V314.26H272.96V315.656C273.671 315.754 274.224 316.052 274.617 316.551C275.015 317.051 275.214 317.734 275.214 318.602H274.046C274.046 318.005 273.904 317.531 273.621 317.18C273.337 316.828 272.954 316.653 272.472 316.653C271.968 316.653 271.583 316.784 271.316 317.046C271.05 317.305 270.917 317.666 270.917 318.132C270.917 318.563 271.056 318.908 271.335 319.167C271.619 319.42 272.082 319.653 272.726 319.865C273.373 320.072 273.877 320.303 274.236 320.557C274.6 320.806 274.867 321.098 275.036 321.433C275.21 321.767 275.296 322.158 275.296 322.607C275.296 323.322 275.081 323.898 274.649 324.333C274.222 324.769 273.621 325.028 272.846 325.108V326.32H271.907V325.108C271.12 325.036 270.502 324.757 270.053 324.27C269.609 323.779 269.387 323.115 269.387 322.277H270.561C270.561 322.865 270.715 323.318 271.024 323.635C271.333 323.953 271.771 324.111 272.338 324.111C272.893 324.111 273.329 323.978 273.646 323.711C273.963 323.445 274.122 323.081 274.122 322.62Z" fill="#1DB63E"/>
<path d="M516.244 194.428H485.64V204.082H516.244V194.428Z" fill="#6C63FF"/>
<path d="M622.227 194.428H611.458V204.082H622.227V194.428Z" fill="#6C63FF"/>
<path d="M643.763 194.428H632.995V204.082H643.763V194.428Z" fill="#6C63FF"/>
<path d="M600.123 194.428H527.013V204.082H600.123V194.428Z" fill="#6C63FF"/>
<path d="M477.705 256.81H447.101V266.464H477.705V256.81Z" fill="#6C63FF"/>
<path d="M583.688 256.81H572.919V266.464H583.688V256.81Z" fill="#6C63FF"/>
<path d="M605.224 256.81H594.456V266.464H605.224V256.81Z" fill="#6C63FF"/>
<path d="M561.584 256.81H488.474V266.464H561.584V256.81Z" fill="#6C63FF"/>
<path d="M604.091 215.964H573.486V225.619H604.091V215.964Z" fill="#6C63FF"/>
<path d="M645.463 215.964H614.859V225.619H645.463V215.964Z" fill="#6C63FF"/>
<path d="M667 215.964H656.232V225.619H667V215.964Z" fill="#6C63FF"/>
<path d="M457.869 215.964H447.101V225.619H457.869V215.964Z" fill="#6C63FF"/>
<path d="M479.406 215.964H468.637V225.619H479.406V215.964Z" fill="#6C63FF"/>
<path d="M563.285 215.964H490.174V225.619H563.285V215.964Z" fill="#6C63FF"/>
<path d="M510.01 246.413H540.615V236.759H510.01V246.413Z" fill="#6C63FF"/>
<path d="M468.637 246.413H499.242V236.759H468.637V246.413Z" fill="#6C63FF"/>
<path d="M447.101 246.413H457.869V236.759H447.101V246.413Z" fill="#6C63FF"/>
<path d="M656.232 246.413H667V236.759H656.232V246.413Z" fill="#6C63FF"/>
<path d="M634.695 246.413H645.464V236.759H634.695V246.413Z" fill="#6C63FF"/>
<path d="M550.816 246.413H623.927V236.759H550.816V246.413Z" fill="#6C63FF"/>
<path d="M411.385 277.616C414.988 271.298 416.553 263.666 415.795 256.104C415.037 248.542 412.007 241.55 407.255 236.397C402.502 231.245 396.342 228.272 389.891 228.018C383.44 227.764 377.125 230.246 372.092 235.013C367.059 239.78 363.641 246.518 362.458 254.004C361.274 261.489 362.404 269.228 365.641 275.815C368.879 282.403 374.011 287.403 380.106 289.91C386.2 292.417 392.855 292.264 398.862 289.479C399.252 291.119 399.98 292.619 400.981 293.846C401.983 295.072 403.227 295.987 404.601 296.507C405.976 297.028 407.438 297.138 408.858 296.828C410.277 296.518 411.61 295.798 412.735 294.731C413.861 293.665 414.745 292.286 415.308 290.718C415.871 289.15 416.096 287.441 415.962 285.745C415.829 284.05 415.341 282.419 414.542 281.001C413.743 279.582 412.659 278.419 411.385 277.616Z" fill="#6C63FF"/>
<path d="M411 249H367V256H411V249Z" fill="white"/>
<path d="M411 265H367V272H411V265Z" fill="white"/>
<path d="M411 279H367V283H411V279Z" fill="white"/>
<path d="M461.827 446.676L458.397 620.67L474.937 617.753L477.475 446.76L461.827 446.676Z" fill="#2F2E41"/>
<path d="M494.199 459L490 562.573H501.197L509.595 459H494.199Z" fill="#2F2E41"/>
<path d="M334.837 448.748L338.852 582.13L352.591 584.801L350.484 448.938L334.837 448.748Z" fill="#2F2E41"/>
<path d="M366.729 422.176L363.688 619.222L377.58 620.928L389.639 419.348L366.729 422.176Z" fill="#2F2E41"/>
<path d="M300.868 483.825C300.868 483.825 278.474 334.065 341.457 329.866C404.44 325.667 494.016 329.866 494.016 329.866C494.016 329.866 545.803 325.667 530.407 483.825C530.407 483.825 544.403 530.013 418.436 525.814C292.47 521.615 300.868 483.825 300.868 483.825Z" fill="#6C63FF"/>
<path d="M527.601 622.362C527.601 622.362 522.198 612.683 519.784 608.218C518.422 605.662 516.119 605.236 514.359 605.296L514.458 604.444L514.89 600.414L514.979 599.562C519.153 598.889 522.73 598.36 522.73 598.36L520.128 494.994C520.128 494.994 519.02 493.903 516.341 487.326C515.012 484.045 508.59 480.015 502.588 476.803C501.647 476.301 500.728 475.823 499.82 475.363C502.006 473.955 504.302 472.651 506.696 471.461C510.107 469.936 511.236 461.237 511.236 461.237L510.672 462.089C511.236 461.237 510.672 439.025 510.672 439.025L508.678 415.969C508.678 415.969 507.261 388.56 496.189 381.377C485.116 374.195 471.131 371.682 471.131 371.682L463.38 370.148L449.097 367.328C448.698 366.825 448.311 366.297 447.99 365.743C447.846 365.53 447.713 365.308 447.58 365.087C451.944 362.71 455.503 359.562 457.96 355.908C460.416 352.253 461.698 348.199 461.697 344.085C461.7 342.703 461.555 341.324 461.266 339.961C461.266 339.705 461.144 339.441 461.077 339.186C462.251 338.567 463.362 337.881 464.399 337.132C466.091 336.095 467.473 334.791 468.452 333.307C468.605 333.016 468.731 332.717 468.828 332.412C468.828 332.327 468.828 332.242 468.895 332.148C468.961 332.054 468.994 331.696 469.027 331.466C469.027 331.381 469.027 331.296 469.027 331.211C469.027 330.964 469.027 330.708 469.027 330.461C469.027 330.401 469.027 330.342 469.027 330.274C469.027 329.992 468.972 329.711 468.917 329.421C468.922 329.405 468.922 329.387 468.917 329.37C468.714 328.381 468.38 327.41 467.92 326.474C466.813 324.275 465.374 322.213 464.853 319.87C464.211 317.101 464.953 314.077 463.237 311.589C462.524 310.648 461.55 309.84 460.384 309.223C459.218 308.606 457.89 308.195 456.493 308.019C453.683 307.685 450.807 307.938 448.167 308.752C446.875 309.224 445.484 309.513 444.059 309.604C443.023 309.557 442.006 309.367 441.058 309.041C437.771 308.049 434.648 306.759 431.757 305.199C429.676 303.935 427.453 302.818 425.114 301.859C423.938 301.387 422.642 301.121 421.317 301.079C419.993 301.038 418.672 301.223 417.451 301.62C413.355 303.222 412.579 307.687 408.77 309.655C406.146 311.018 402.725 310.882 399.558 310.967C396.391 311.052 392.804 311.657 391.243 313.77C390.135 315.235 390.401 316.982 390.611 318.695L390.678 319.274C390.678 319.478 390.678 319.691 390.744 319.896C390.919 322.087 390.493 324.281 389.493 326.337C387.965 329.456 385.064 332.531 385.164 335.709C385.173 336.215 385.258 336.718 385.418 337.209C385.505 337.454 385.609 337.696 385.728 337.933C386.338 338.986 387.022 340.013 387.777 341.009L387.876 341.145C387.954 341.265 388.032 341.384 388.098 341.503C388.164 341.622 388.297 341.827 388.375 341.989C388.452 342.151 388.463 342.151 388.497 342.227C388.53 342.304 388.64 342.543 388.696 342.704C388.879 343.185 388.957 343.686 388.928 344.187C388.798 344.833 388.728 345.485 388.718 346.138C388.722 346.465 388.871 346.781 389.141 347.034C389.411 347.287 389.785 347.461 390.202 347.527C390.658 347.518 391.103 347.412 391.486 347.22C392.48 346.784 393.424 346.286 394.31 345.729C394.31 346.002 394.31 346.274 394.376 346.581C395.147 352.679 398.715 358.367 404.441 362.625C404.441 362.889 404.441 363.161 404.364 363.477C404.286 363.792 404.308 364.09 404.286 364.405L391.885 367.404C391.885 367.404 391.951 367.575 392.084 367.864L390.778 368.265C384.344 370.267 377.18 372.755 373.172 375.013C371.401 376.001 369.784 376.811 368.333 377.484C363.067 379.964 359.029 383.728 356.862 388.177L356.696 388.5C355.589 390.451 350.163 403.726 350.163 403.726C350.163 403.726 346.188 411.121 345.612 415.91C345.612 415.91 339.08 431.783 340.785 442.228C340.785 442.228 335.669 457.241 337.662 459.627C337.662 459.627 335.625 466.085 344.572 472.586C343.918 472.893 343.21 473.225 342.468 473.591C335.536 476.948 325.538 482.393 323.833 486.593C321.186 493.128 320.046 494.261 320.046 494.261L317.366 597.466C317.366 597.466 320.943 597.994 325.117 598.659L325.206 599.511L325.637 603.532L325.737 604.384C323.977 604.325 321.674 604.793 320.312 607.315C317.887 611.771 312.561 621.442 312.561 621.442C312.561 621.442 300.636 629.962 307.866 637.868C308.185 638.229 308.556 638.561 308.973 638.857C314.166 642.486 325.239 640.16 333.111 637.792C337.112 636.478 340.562 634.337 343.077 631.606C343.394 631.286 343.794 631.021 344.251 630.825C344.709 630.63 345.214 630.51 345.734 630.473C347.54 630.249 349.242 629.677 350.684 628.812C351.552 628.324 352.253 627.682 352.727 626.94C353.202 626.198 353.435 625.378 353.408 624.551C353.402 624.509 353.402 624.466 353.408 624.424L352.71 612.299C352.71 612.299 351.857 603.83 349.145 604.376L348.447 604.504L348.259 603.652L347.893 602.007L347.705 601.155H349.211C349.211 601.155 349.588 591.578 354.138 584.047C358.689 576.515 361.679 515.672 361.679 515.672C361.679 515.672 418.005 516.379 419.887 512.315C420.995 512.315 422.201 512.315 423.353 512.256C425.246 516.32 478.406 516.516 478.406 516.516C478.406 516.516 481.429 577.426 485.969 584.967C486.927 586.582 487.722 588.251 488.349 589.96C489.778 593.911 490.636 597.971 490.907 602.067H492.413L492.213 602.919L491.848 604.555L491.66 605.407L490.94 605.279C488.25 604.742 487.397 613.211 487.397 613.211L486.677 625.412C486.621 626.235 486.833 627.055 487.293 627.799C487.753 628.543 488.447 629.187 489.312 629.672C490.779 630.557 492.512 631.143 494.35 631.376C494.872 631.408 495.378 631.525 495.836 631.719C496.294 631.913 496.693 632.179 497.008 632.501C499.526 635.23 502.974 637.37 506.973 638.686C515.477 641.242 527.701 643.739 532.241 638.772C539.527 630.848 527.601 622.362 527.601 622.362ZM384.433 470.413H384.566H384.433ZM473.401 435.583C473.401 435.583 474.83 439.715 477.376 441.888C479.923 444.06 478.661 457.556 478.661 457.556C477.659 457.605 476.665 457.728 475.693 457.923C473.733 448.951 471.929 438.991 473.401 435.583Z" fill="url(#paint0_linear)"/>
<path d="M350.927 605.654L328.66 607.358L328.04 601.624L327.608 597.679L327 591.911L348.037 592.763L349.709 600.167L350.064 601.777H350.075L350.927 605.654Z" fill="#8E6F7F"/>
<path d="M513.085 592.771L512.476 598.531L512.056 602.476L511.424 608.21L489.146 606.506L490.032 602.629L490.376 601.027L492.047 593.623L513.085 592.771Z" fill="#8E6F7F"/>
<path d="M489.49 509.793L423.276 512.188C420.264 512.301 417.252 512.301 414.24 512.188L350.983 509.802V471.24H489.49V509.793Z" fill="#5F5570"/>
<path opacity="0.1" d="M489.49 509.793L423.276 512.188C420.264 512.301 417.252 512.301 414.24 512.188L350.983 509.802V471.24H489.49V509.793Z" fill="black"/>
<path d="M404.696 367.345C404.696 367.345 382.639 373.045 374.335 377.731C372.607 378.702 371.013 379.503 369.618 380.159C364.489 382.592 360.564 386.275 358.468 390.622C358.412 390.741 358.357 390.843 358.302 390.937C357.194 392.854 351.935 405.847 351.935 405.847C351.935 405.847 348.059 413.09 347.506 417.776C346.952 422.462 379.063 435.029 379.063 435.029C379.063 435.029 363.561 461.015 370.481 467.619C377.402 474.222 478.439 477.417 476.225 467.619C474.01 457.82 470.135 441.632 472.072 437.159L506.397 417.989C506.397 417.989 505.013 391.15 494.218 384.121C483.422 377.092 469.858 374.536 469.858 374.536L448.366 370.276C448.366 370.276 440.792 384.76 432.488 386.677C424.183 388.594 405.991 379.742 404.696 367.345Z" fill="#EAEAF2"/>
<path opacity="0.1" d="M435.677 391.738C435.677 391.738 426.31 397.753 421.393 391.738C421.393 391.738 416.964 401.911 421.393 405.319L421.227 406.009L420.441 409.042L410.188 474.648L418.625 485.852L433.983 471.027L432.743 409.681L432.189 406.163L432.056 405.311H434.68C434.68 405.311 441.645 396.049 435.677 391.738Z" fill="black"/>
<path opacity="0.1" d="M437.891 391.738C437.891 391.738 428.524 397.753 423.608 391.738C423.608 391.738 419.179 401.911 423.608 405.319L423.442 406.009L422.656 409.042L412.402 474.648L420.84 485.852L436.197 471.027L434.957 409.681L434.404 406.163L434.271 405.311H436.895C436.895 405.311 443.86 396.049 437.891 391.738Z" fill="black"/>
<path d="M435.09 470.183L419.732 484.983L411.273 473.838L421.537 408.199L422.323 405.166L422.501 404.467L423.885 401.707L433.163 404.467L433.296 405.319L433.85 408.838L435.09 470.183Z" fill="#BC8487"/>
<path opacity="0.1" d="M349.709 600.158C344.931 600.135 340.167 599.761 335.481 599.042C333.167 598.599 330.266 598.105 327.619 597.67L326.999 591.902L348.037 592.754L349.709 600.158Z" fill="black"/>
<path d="M419.898 512.264C418.06 516.243 363.162 515.544 363.162 515.544C363.162 515.544 360.217 575.186 355.788 582.573C351.359 589.96 350.983 599.323 350.983 599.323C350.983 599.323 341.394 599.323 335.481 598.19C329.568 597.057 319.979 595.634 319.979 595.634L322.57 494.457C322.57 494.457 323.678 493.392 326.258 486.993C327.918 482.878 337.662 477.545 344.406 474.213C348.17 472.39 350.983 471.197 350.983 471.197L383.735 472.219L403.954 472.85C403.954 472.85 421.748 508.285 419.898 512.264Z" fill="#5F5570"/>
<path opacity="0.1" d="M350.938 605.645L328.66 607.349L328.029 601.615C328.864 601.633 329.686 601.772 330.454 602.024C334.518 604.273 346.133 602.484 350.063 601.769L350.938 605.645Z" fill="black"/>
<path d="M355.146 622.217C355.172 623.026 354.943 623.827 354.478 624.553C354.014 625.279 353.327 625.907 352.477 626.383C351.076 627.229 349.419 627.789 347.661 628.011C347.153 628.044 346.661 628.161 346.216 628.351C345.772 628.542 345.385 628.804 345.081 629.118C342.62 631.789 339.248 633.886 335.337 635.176C327.664 637.494 316.868 639.769 311.808 636.216C311.39 635.93 311.018 635.607 310.7 635.253C303.647 627.482 315.273 619.167 315.273 619.167C315.273 619.167 320.522 609.692 322.88 605.33C323.135 604.764 323.542 604.246 324.075 603.809C324.607 603.372 325.254 603.027 325.971 602.795C326.689 602.564 327.462 602.451 328.24 602.465C329.019 602.479 329.784 602.619 330.487 602.876C334.916 605.33 348.347 602.978 350.972 602.459C353.596 601.939 354.437 610.221 354.437 610.221L355.146 622.089C355.14 622.132 355.14 622.175 355.146 622.217Z" fill="#BC8487"/>
<path opacity="0.1" d="M513.096 592.763L512.476 598.522C509.83 598.957 506.94 599.451 504.604 599.894C499.922 600.614 495.161 600.991 490.386 601.019L492.058 593.615L513.096 592.763Z" fill="black"/>
<path d="M520.127 596.486C520.127 596.486 510.538 597.909 504.626 599.042C498.713 600.175 489.124 600.175 489.124 600.175C489.124 600.175 488.759 590.803 484.33 583.425C479.901 576.046 476.944 516.397 476.944 516.397C476.944 516.397 425.147 516.166 423.298 512.188C421.448 508.209 445.875 473.847 445.875 473.847L460.767 473.25L489.124 472.092C489.124 472.092 494.66 474.409 500.462 477.536C506.264 480.663 512.565 484.633 513.86 487.845C516.44 494.244 517.547 495.309 517.547 495.309L520.127 596.486Z" fill="#5F5570"/>
<path opacity="0.1" d="M512.056 602.467L511.436 608.201L489.146 606.497L490.032 602.621C493.963 603.345 505.534 605.126 509.631 602.876C510.398 602.624 511.221 602.485 512.056 602.467Z" fill="black"/>
<path d="M509.631 603.728C510.334 603.47 511.101 603.329 511.88 603.314C512.66 603.299 513.434 603.411 514.153 603.643C514.873 603.875 515.52 604.221 516.053 604.658C516.587 605.096 516.994 605.615 517.249 606.182C519.596 610.544 524.855 620.027 524.855 620.027C524.855 620.027 536.482 628.334 529.428 636.105C524.999 640.978 513.085 638.533 504.803 636.028C500.888 634.743 497.515 632.645 495.059 629.97C494.754 629.655 494.365 629.393 493.918 629.202C493.472 629.011 492.977 628.896 492.468 628.863C490.669 628.622 488.979 628.036 487.552 627.159C486.714 626.681 486.042 626.052 485.595 625.327C485.149 624.601 484.943 623.802 484.994 623.001L485.692 611.073C485.692 611.073 486.522 602.782 489.146 603.302C491.771 603.822 505.202 606.182 509.631 603.728Z" fill="#BC8487"/>
<path d="M452.397 374.536L430.041 392.769L429.421 393.28L428.613 392.914C423.94 390.784 400.566 379.929 402.57 376.666C403.677 374.808 404.33 370.94 404.674 367.609C404.674 367.208 404.74 366.817 404.784 366.433C405.006 363.8 405.061 361.756 405.061 361.756C405.061 361.756 447.137 356.217 445.476 361.756C444.801 363.996 445.808 366.518 447.237 368.725C447.657 369.364 448.122 369.969 448.576 370.54C449.694 371.956 450.973 373.293 452.397 374.536Z" fill="#FFC4D0"/>
<path opacity="0.1" d="M447.237 368.725C440.959 372.285 433.241 374.009 425.462 373.589C417.684 373.169 410.354 370.632 404.784 366.433C405.006 363.8 405.061 361.756 405.061 361.756C405.061 361.756 447.137 356.217 445.476 361.756C444.834 364.013 445.808 366.518 447.237 368.725Z" fill="black"/>
<path d="M460.601 347.518C460.723 354.076 457.527 360.414 451.689 365.193C445.851 369.972 437.828 372.818 429.314 373.129C420.8 373.441 412.462 371.195 406.061 366.864C399.659 362.534 395.696 356.458 395.007 349.921C394.919 349.126 394.874 348.325 394.874 347.518C394.794 344.16 395.585 340.823 397.199 337.703C398.814 334.582 401.221 331.741 404.279 329.344C407.337 326.947 410.985 325.043 415.01 323.744C419.035 322.444 423.356 321.775 427.721 321.775C432.086 321.775 436.407 322.444 440.432 323.744C444.457 325.043 448.105 326.947 451.163 329.344C454.222 331.741 456.628 334.582 458.243 337.703C459.858 340.823 460.648 344.16 460.568 347.518H460.601Z" fill="#FFC4D0"/>
<path opacity="0.1" d="M460.192 343.48C459.337 344.016 458.345 344.407 457.28 344.629C456.216 344.85 455.103 344.897 454.013 344.766C448.942 343.914 447.203 337.95 442.022 337.541C436.84 337.132 433.396 342.653 428.148 342.543C425.933 342.5 423.94 341.384 421.903 340.609C418.337 339.254 412.469 338.427 408.615 339.45C402.825 340.975 400.865 345.099 397.166 348.379C396.535 348.937 395.842 349.453 395.096 349.921C395.007 349.126 394.963 348.325 394.963 347.518C394.888 341.125 397.963 334.947 403.571 330.229C409.178 325.511 416.901 322.603 425.183 322.091C433.465 321.579 441.692 323.501 448.207 327.47C454.721 331.438 459.039 337.159 460.291 343.48H460.192Z" fill="black"/>
<path d="M421.903 339.765C423.94 340.532 425.889 341.656 428.148 341.699C433.385 341.801 436.806 336.255 442.01 336.689C447.215 337.124 448.931 343.037 454.024 343.914C457.446 344.511 460.668 342.543 463.226 340.711C464.878 339.698 466.227 338.422 467.178 336.97C468.286 334.857 467.71 332.421 466.68 330.274C465.65 328.126 464.2 326.065 463.691 323.807C463.071 321.097 463.79 318.132 462.118 315.696C461.426 314.775 460.478 313.984 459.34 313.38C458.203 312.776 456.905 312.374 455.541 312.202C452.802 311.875 450 312.12 447.425 312.909C446.171 313.378 444.816 313.667 443.428 313.761C442.414 313.714 441.42 313.526 440.494 313.208C437.291 312.236 434.251 310.975 431.436 309.45C429.418 308.211 427.257 307.116 424.981 306.179C423.837 305.716 422.574 305.456 421.283 305.416C419.992 305.376 418.706 305.558 417.518 305.948C413.532 307.516 412.768 311.913 409.058 313.813C406.501 315.142 403.168 315.005 400.09 315.099C397.011 315.193 393.446 315.764 391.985 317.834C390.678 319.615 391.331 321.804 391.497 323.841C391.663 325.985 391.244 328.133 390.268 330.146C388.552 333.673 385.064 337.149 386.304 340.796C387.113 343.19 389.903 345.175 389.737 347.612C389.606 348.241 389.536 348.876 389.526 349.512C389.53 349.832 389.676 350.142 389.94 350.39C390.203 350.638 390.569 350.809 390.977 350.875C391.421 350.871 391.853 350.764 392.217 350.569C394.058 349.776 395.709 348.747 397.1 347.527C400.843 344.238 402.78 340.123 408.571 338.598C412.48 337.601 418.337 338.402 421.903 339.765Z" fill="#BC8487"/>
<path d="M460.003 488.493L454.024 489.745L440.217 492.668C437.021 494.5 433.425 495.876 429.598 496.732C421.15 498.376 415.691 494.798 411.151 489.26C409.324 487.045 410.243 485.272 412.635 483.884C418.392 480.535 432.632 479.445 436.994 479.888C439.86 480.067 442.739 479.723 445.399 478.882C447.286 478.354 449.106 477.692 450.835 476.906L460.003 488.493Z" fill="#FFC4D0"/>
<path opacity="0.1" d="M460.003 488.493L454.024 489.745C452.308 485.767 449.484 480.774 445.443 478.857C447.33 478.328 449.15 477.667 450.88 476.88L460.003 488.493Z" fill="black"/>
<path opacity="0.1" d="M500.44 477.536C497.96 479.078 495.856 480.484 495.856 480.484C495.856 480.484 467.068 487.428 461.531 496.161C461.531 496.161 457.102 479.121 447.691 478.908C447.691 478.908 457.822 475.849 460.745 473.233L489.124 472.092C489.124 472.092 494.661 474.409 500.44 477.536Z" fill="black"/>
<path d="M500.009 410.746L506.375 417.989L508.313 440.567C508.313 440.567 508.867 462.293 508.313 463.145L508.867 462.293C508.867 462.293 507.759 470.814 504.438 472.305C501.116 473.796 493.642 478.78 493.642 478.78C493.642 478.78 464.853 485.724 459.317 494.457C459.317 494.457 454.888 477.417 445.476 477.204C445.476 477.204 459.594 472.944 459.317 470.175C459.317 470.175 470.113 462.719 470.943 460.802C471.773 458.885 477.166 458.672 477.166 458.672C477.166 458.672 478.417 445.466 475.926 443.336C473.434 441.206 472.05 437.159 472.05 437.159L500.009 410.746Z" fill="#EAEAF2"/>
<path opacity="0.1" d="M429.598 496.706C421.15 498.351 415.691 494.772 411.151 489.234C409.324 487.019 410.243 485.247 412.635 483.858L413.498 484.122C413.498 484.122 428.723 489.2 429.598 496.706Z" fill="black"/>
<path d="M426.099 503.514C416.134 514.164 397.587 499.356 396.203 496.374C395.705 495.292 393.811 494.329 391.63 493.554C388.863 492.624 385.99 491.891 383.049 491.364L399.525 481.038L402.68 482.009L412.391 485C412.391 485 436.064 492.864 426.099 503.514Z" fill="#FFC4D0"/>
<path opacity="0.1" d="M402.681 482.009C393.601 485.332 391.663 490.112 391.608 493.554C388.841 492.624 385.968 491.891 383.027 491.364L399.503 481.038L402.681 482.009Z" fill="black"/>
<path opacity="0.1" d="M388.176 500.421C388.176 500.421 361.601 484.233 348.868 477.204C347.274 476.33 345.792 475.343 344.439 474.256C348.204 472.432 351.016 471.24 351.016 471.24L383.769 472.262C384.643 473.429 385.164 474.222 385.164 474.222L402.88 483.168C381.532 488.493 388.176 500.421 388.176 500.421Z" fill="black"/>
<path d="M352.743 415.433L347.484 417.776C347.484 417.776 341.117 433.325 342.778 443.549C342.778 443.549 337.795 458.246 339.733 460.589C339.733 460.589 337.242 468.471 349.975 475.5C362.709 482.529 389.283 498.717 389.283 498.717C389.283 498.717 382.639 486.789 403.954 481.464L386.238 472.518C386.238 472.518 380.292 463.435 374.612 461.441C374.612 461.441 370.183 458.033 372.951 455.69C375.719 453.347 377.933 450.791 377.933 448.448C377.933 446.105 379.041 435.029 379.041 435.029L382.362 423.101L352.743 415.433Z" fill="#EAEAF2"/>
<path opacity="0.1" d="M433.296 405.311H422.5C422.435 405.264 422.376 405.212 422.323 405.157L422.5 404.459L423.885 401.698L433.163 404.459L433.296 405.311Z" fill="black"/>
<path d="M436.784 390.886C436.784 390.886 427.417 396.901 422.501 390.886C422.501 390.886 418.072 401.059 422.501 404.467H435.788C435.788 404.467 442.752 395.197 436.784 390.886Z" fill="#BC8487"/>
<path opacity="0.1" d="M449.451 371.128L463.403 373.897C463.403 373.897 450.182 400.309 447.27 400.309L430.528 394.132L449.451 371.128Z" fill="black"/>
<path opacity="0.1" d="M452.397 374.536L430.041 392.769L429.421 393.28L428.613 392.914L448.156 369.978L448.632 370.582C449.735 371.982 450.994 373.305 452.397 374.536Z" fill="black"/>
<path d="M448.344 370.276L462.295 373.045C462.295 373.045 449.075 399.457 446.163 399.457L429.421 393.28L448.344 370.276Z" fill="#EAEAF2"/>
<path opacity="0.1" d="M403.588 368.197L391.497 371.128C391.497 371.128 403.4 398.818 406.722 400.309L428.314 394.132L403.588 368.197Z" fill="black"/>
<path opacity="0.1" d="M430.041 392.769L429.421 393.28C429.421 393.28 400.355 380.287 402.57 376.666C403.677 374.808 404.33 370.94 404.674 367.609V367.089L430.041 392.769Z" fill="black"/>
<path d="M404.696 367.345L392.604 370.276C392.604 370.276 404.508 397.966 407.829 399.457L429.421 393.28L404.696 367.345Z" fill="#EAEAF2"/>
<path opacity="0.1" d="M375.896 412.578C375.896 412.578 383.182 413.575 383.049 419.395C382.916 425.214 386.05 411.871 386.05 411.871L375.896 412.578Z" fill="black"/>
<path opacity="0.1" d="M377.557 430.471C377.557 430.471 375.531 439.272 377.557 447.23C379.583 455.188 379.406 457.88 380.978 458.306C382.551 458.732 377.557 430.471 377.557 430.471Z" fill="black"/>
<path opacity="0.1" d="M470.567 429.619C469.985 429.675 469.427 429.829 468.932 430.07C468.436 430.311 468.015 430.632 467.699 431.011C467.382 431.391 467.177 431.819 467.099 432.266C467.021 432.713 467.07 433.167 467.245 433.598C468.175 437.159 470.567 429.619 470.567 429.619Z" fill="black"/>
<path opacity="0.1" d="M343.974 459.439C343.974 459.439 367.702 457.88 371.655 461.143C375.608 464.407 343.974 459.439 343.974 459.439Z" fill="black"/>
<path opacity="0.1" d="M481.639 460.675C481.639 460.675 498.99 459.03 503.054 461.305L481.639 460.675Z" fill="black"/>
<path opacity="0.1" d="M488.659 462.847C488.659 462.847 498.99 463.128 501.393 464.125L488.659 462.847Z" fill="black"/>
<path opacity="0.1" d="M490.686 465.702C490.686 465.702 500.097 465.42 501.393 466.554L490.686 465.702Z" fill="black"/>
<path opacity="0.1" d="M357.958 505.746C357.958 505.746 366.019 508.975 365.2 512.273C364.38 515.57 357.958 505.746 357.958 505.746Z" fill="black"/>
<path opacity="0.1" d="M350.983 507.314C350.983 507.314 363.284 519.592 361.612 523.639C359.94 527.686 350.983 507.314 350.983 507.314Z" fill="black"/>
<path opacity="0.1" d="M482.846 509.35C482.846 509.35 476.756 513.21 476.922 516.397L482.846 509.35Z" fill="black"/>
<path opacity="0.1" d="M342.224 585.41C342.224 585.41 342.224 589.031 350.938 594.356L342.224 585.41Z" fill="black"/>
<path opacity="0.1" d="M496.033 576.89C496.033 576.89 495.103 584.422 486.622 588.324L496.033 576.89Z" fill="black"/>
<g opacity="0.1">
<path opacity="0.1" d="M391.497 321.251C391.497 320.663 391.364 320.058 391.298 319.461C391.157 320.762 391.209 322.072 391.453 323.364C391.529 322.661 391.544 321.955 391.497 321.251Z" fill="black"/>
<path opacity="0.1" d="M389.737 345.056C389.903 342.585 387.113 340.6 386.304 338.24C386.263 338.125 386.233 338.009 386.216 337.891C385.963 338.852 385.993 339.845 386.304 340.796C386.957 342.747 388.928 344.417 389.548 346.308C389.604 345.865 389.715 345.465 389.737 345.056Z" fill="black"/>
<path opacity="0.1" d="M467.178 334.414C466.224 335.864 464.876 337.14 463.225 338.155C460.646 339.987 457.446 341.955 454.024 341.358C448.942 340.506 447.192 334.542 442.01 334.133C436.828 333.724 433.385 339.245 428.148 339.134C425.933 339.092 423.94 337.976 421.903 337.2C418.337 335.846 412.48 335.019 408.615 336.042C402.825 337.567 400.865 341.691 397.144 344.971C395.756 346.192 394.108 347.223 392.272 348.021C391.901 348.21 391.467 348.313 391.021 348.319C390.743 348.29 390.481 348.204 390.262 348.069C390.044 347.934 389.877 347.755 389.781 347.552V347.612C389.651 348.243 389.58 348.881 389.571 349.521C389.577 349.84 389.724 350.147 389.987 350.394C390.251 350.64 390.616 350.81 391.021 350.875C391.467 350.869 391.901 350.766 392.272 350.577C394.108 349.779 395.756 348.748 397.144 347.527C400.887 344.247 402.825 340.123 408.615 338.598C412.524 337.575 418.381 338.402 421.903 339.756C423.94 340.532 425.889 341.648 428.148 341.691C433.385 341.793 436.806 336.246 442.01 336.689C447.215 337.132 448.942 343.028 454.024 343.914C457.446 344.511 460.668 342.543 463.225 340.711C464.876 339.696 466.224 338.42 467.178 336.97C467.795 335.739 467.96 334.401 467.654 333.102C467.561 333.552 467.401 333.992 467.178 334.414Z" fill="black"/>
</g>
<path opacity="0.1" d="M315.285 619.175C315.285 619.175 324.331 617.028 328.085 621.101L315.285 619.175Z" fill="black"/>
<path opacity="0.1" d="M524.855 620.027C524.855 620.027 509.874 619.354 510.461 622.473L524.855 620.027Z" fill="black"/>
</g>
<defs>
<linearGradient id="paint0_linear" x1="305.474" y1="471.333" x2="534.622" y2="471.333" gradientUnits="userSpaceOnUse">
<stop stop-color="#808080" stop-opacity="0.25"/>
<stop offset="0.54" stop-color="#808080" stop-opacity="0.12"/>
<stop offset="1" stop-color="#808080" stop-opacity="0.1"/>
</linearGradient>
<clipPath id="clip0">
<rect width="834" height="738" fill="white"/>
</clipPath>
</defs>
</svg>
