<svg width="730" height="545" viewBox="0 0 730 545" fill="none" xmlns="http://www.w3.org/2000/svg">
<g clip-path="url(#clip0)">
<g clip-path="url(#clip1)">
<path d="M127.155 440.47C127.155 440.47 112.191 438.989 110.74 468.53C110.74 468.53 120.227 470.233 126.966 460.882C133.705 451.531 130.915 446.304 127.155 440.47Z" fill="#38D39F"/>
<path d="M104.489 359.946C104.489 359.946 85.9791 341.288 58.1285 359.946C58.1285 359.946 75.6768 376.323 104.489 364.714V359.946Z" fill="#38D39F"/>
<path d="M102.18 330.456C102.18 330.456 83.4216 310.962 56.7386 329.42C56.7386 329.42 77.8927 346.626 102.18 335.017V330.456Z" fill="#38D39F"/>
<path d="M137.877 476.897C137.721 476.651 122.113 451.864 111.238 409.53C104.861 384.754 101.309 358.709 100.712 332.363C99.9655 299.426 104.864 262.649 113.256 229.246L114.168 230.752C95.3333 305.729 102.818 369.982 112.742 408.681C123.51 450.625 138.934 475.152 139.089 475.391L137.877 476.897Z" fill="#444053"/>
<path d="M129.052 441.291C129.052 441.291 136.264 429.889 165.11 445.852C165.11 445.852 161.264 453.522 148.524 452.9C135.783 452.279 132.375 447.303 129.052 441.291Z" fill="#38D39F"/>
<path d="M118.432 416.911C118.432 416.911 126.846 396.794 157.384 411.099C157.384 411.099 150.412 429.556 121.557 423.752L118.432 416.911Z" fill="#38D39F"/>
<path d="M109.057 386.844C109.057 386.844 124.923 366.528 153.057 385.363C153.057 385.363 143.201 404.435 111.461 394.07L109.057 386.844Z" fill="#38D39F"/>
<path d="M105.692 358.235C105.692 358.235 124.201 339.578 152.052 358.235C152.052 358.235 134.495 374.613 105.692 363.003V358.235Z" fill="#38D39F"/>
<path d="M102.807 330.456C102.807 330.456 121.557 310.962 148.249 329.42C148.249 329.42 127.086 346.626 102.807 335.017V330.456Z" fill="#38D39F"/>
<path d="M104.49 305.779C104.49 305.779 124.236 280.695 149.21 297.694C149.21 297.694 128.048 319.262 104.49 310.547V305.779Z" fill="#38D39F"/>
<path d="M109.057 276.964C109.057 276.964 129.971 252.087 154.258 271.159C154.258 271.159 129.49 292.719 109.057 281.524V276.964Z" fill="#38D39F"/>
<path d="M116.037 251.206C116.037 251.206 140.788 227.832 162.397 237.139C162.397 237.139 136.59 261.964 114.955 257.403L116.037 251.206Z" fill="#38D39F"/>
<path d="M124.682 226.795C124.682 226.795 153.297 198.18 169.884 207.716C169.884 207.716 148.833 229.927 122.665 232.185L124.682 226.795Z" fill="#38D39F"/>
<path d="M137.174 198.468C137.174 198.468 162.191 175.087 180.461 180.892C180.461 180.892 159.066 205.154 133.817 205.776L137.174 198.468Z" fill="#38D39F"/>
<path d="M148.489 171.978C148.489 171.978 176.134 149.588 188.153 153.527C188.153 153.527 168.201 178.404 147.287 176.953L148.489 171.978Z" fill="#38D39F"/>
<path d="M159.547 147.515C159.547 147.515 183.345 120.773 196.326 122.846C196.326 122.846 181.903 146.686 159.547 150.24V147.515Z" fill="#38D39F"/>
<path d="M171.541 114.554C171.541 114.554 192.583 94.0451 203.941 94.0969C203.941 94.0969 187.338 121.491 170.682 121.239L171.541 114.554Z" fill="#38D39F"/>
<path d="M178.658 92.5717L198.97 49.8665C198.97 49.8665 199.992 88.47 176.065 100.494L178.658 92.5717Z" fill="#38D39F"/>
<path d="M186.9 45.4761C186.9 45.4761 190.265 9.81929 188.102 6.91699C188.102 6.91699 202.636 36.5322 186.762 61.2314L186.9 45.4761Z" fill="#38D39F"/>
<path d="M117.651 416.429C117.651 416.429 96.5742 405.168 82.9408 432.718C82.9408 432.718 101.691 443.453 120.124 423.456L117.651 416.429Z" fill="#38D39F"/>
<path d="M108.387 385.696C108.387 385.696 82.5459 375.531 70.0028 404.295C70.0028 404.295 89.9721 416.141 110.74 392.967L108.387 385.696Z" fill="#38D39F"/>
<path d="M104.49 306.49C104.49 306.49 91.3372 278.393 62.7483 290.476C62.7483 290.476 78.2018 315.397 103.331 311.155L104.49 306.49Z" fill="#38D39F"/>
<path d="M110.714 276.823C110.714 276.823 97.6474 248.237 68.6464 261.49C68.6464 261.49 86.4007 287.692 109.426 281.243L110.714 276.823Z" fill="#38D39F"/>
<path d="M118.819 251.354C118.819 251.354 113.667 220.006 89.6716 217.2C89.6716 217.2 94.7627 250.251 115.616 256.996L118.819 251.354Z" fill="#38D39F"/>
<path d="M125.3 226.847C125.3 226.847 123.283 189.088 103.408 187.777C103.408 187.777 104.078 216.43 123.06 232.2L125.3 226.847Z" fill="#38D39F"/>
<path d="M139.243 197.388C139.243 197.388 133.31 165.995 114.346 162.153C114.346 162.153 116.698 192.56 137.363 205.095L139.243 197.388Z" fill="#38D39F"/>
<path d="M150.739 172.207C150.739 172.207 150.533 139.497 138.942 134.692C138.942 134.692 131.757 164.307 147.382 176.383L150.739 172.207Z" fill="#38D39F"/>
<path d="M160.431 147.13C160.431 147.13 158.8 113.443 146.806 108.697C146.806 108.697 142.694 135.351 158.628 149.329L160.431 147.13Z" fill="#38D39F"/>
<path d="M173.223 117.219C173.223 117.219 173.146 89.8249 164.578 83.3984C164.578 83.3984 156.061 113.413 168.75 122.727L173.223 117.219Z" fill="#38D39F"/>
<path d="M177.645 91.2243L169.317 45.6241C169.317 45.6241 157.985 82.9912 178.04 99.4499L177.645 91.2243Z" fill="#38D39F"/>
<path d="M179.276 45.9055C179.276 45.9055 157.873 15.2611 158.319 11.848C158.319 11.848 160.586 43.9805 187.509 59.9727L179.276 45.9055Z" fill="#38D39F"/>
<path d="M181.783 36.858C181.783 36.858 161.59 -6.68379 152.456 -10.208C152.456 -10.208 181.302 2.4377 183.465 35.6142L181.783 36.858Z" fill="#38D39F"/>
<path d="M170.57 121.476L169.188 121.113C186.23 73.1885 190.488 42.633 181.165 34.9774L182.16 34.0742C192.033 42.1517 188.033 72.3519 170.57 121.476Z" fill="#444053"/>
<path d="M123.643 233.659L121.609 233.037C123.412 228.646 125.361 224.189 127.404 219.791C145.192 181.558 160.337 145.998 170.047 118.692L171.824 117.952C162.097 145.309 147.227 182.239 129.413 220.517C127.378 224.87 125.438 229.313 123.643 233.659Z" fill="#444053"/>
<path d="M156.997 220.643H156.353C155.267 220.643 154.387 221.402 154.387 222.338V250.191C154.387 251.128 155.267 251.887 156.353 251.887H156.997C158.083 251.887 158.963 251.128 158.963 250.191V222.338C158.963 221.402 158.083 220.643 156.997 220.643Z" fill="#3A3768"/>
</g>
<path opacity="0.1" d="M424.137 82.4382C377.338 80.7732 332.766 65.3144 290.204 48.3979C247.643 31.4813 205.486 12.737 159.808 3.77549C130.428 -1.98916 96.8259 -2.80317 73.1589 13.3142C50.374 28.8543 43.0129 55.6055 39.0575 80.455C36.0784 99.1475 34.3285 118.824 42.485 136.318C48.1541 148.469 58.2052 158.681 65.1614 170.321C89.3635 210.815 72.255 260.75 46.0354 300.289C33.7428 318.841 19.4616 336.549 9.96727 356.278C0.472986 376.006 -3.91622 398.643 4.39218 418.786C12.621 438.766 32.2387 453.744 53.4906 464.289C96.6524 485.712 147.493 491.839 197.105 495.31C306.893 502.999 417.26 499.669 527.337 496.339C568.077 495.103 608.99 493.852 649.064 487.407C671.321 483.825 694.294 478.149 710.455 464.43C730.962 447.017 736.045 417.535 722.299 395.698C699.247 359.075 635.527 349.98 619.395 310.678C610.53 289.041 619.634 264.946 632.526 244.877C660.178 201.838 706.521 164.076 708.958 114.88C710.636 81.0914 688.357 47.2509 653.908 31.2593C617.804 14.5056 567.73 16.6072 541.105 44.3501C513.663 72.9143 465.462 83.9034 424.137 82.4382Z" fill="#38D39F"/>
<path d="M503.183 290.221V428.624L532.888 466.352L535.149 469.222H652.358L654.725 290.221H503.183Z" fill="#2F2E41"/>
<path opacity="0.1" d="M503.183 290.221V428.624L532.888 466.352L534.711 290.221H503.183Z" fill="black"/>
<path d="M220.225 286.53V424.932L190.52 462.661L188.259 465.531H71.0494L68.6818 286.53H220.225Z" fill="#2F2E41"/>
<path opacity="0.1" d="M220.225 286.53V424.933L190.52 462.661L188.696 286.53H220.225Z" fill="black"/>
<path d="M690.243 283.762V292.066H53.2909V280.071L112.487 256.082H638.15L690.243 283.762Z" fill="#2F2E41"/>
<path opacity="0.1" d="M690.243 283.762V292.066H53.2909V280.071L690.243 283.762Z" fill="black"/>
<path opacity="0.1" d="M144.453 325.283H116.039L104.2 318.824H157.476L144.453 325.283Z" fill="black"/>
<path opacity="0.1" d="M144.453 352.041H116.039L104.2 345.582H157.476L144.453 352.041Z" fill="black"/>
<path opacity="0.1" d="M144.453 389.871H116.039L104.2 383.412H157.476L144.453 389.871Z" fill="black"/>
<path opacity="0.1" d="M144.453 427.701H116.039L104.2 421.242H157.476L144.453 427.701Z" fill="black"/>
<path opacity="0.1" d="M578.954 328.973H607.368L619.207 322.515H565.931L578.954 328.973Z" fill="black"/>
<path opacity="0.1" d="M578.954 355.731H607.368L619.207 349.273H565.931L578.954 355.731Z" fill="black"/>
<path opacity="0.1" d="M578.954 393.561H607.368L619.207 387.103H565.931L578.954 393.561Z" fill="black"/>
<path opacity="0.1" d="M578.954 431.392H607.368L619.207 424.933H565.931L578.954 431.392Z" fill="black"/>
<path d="M450.448 232.992L446.499 252.642C446.499 252.642 427.057 260.691 440.727 260.928C454.397 261.165 518.798 260.928 518.798 260.928C518.798 260.928 531.253 260.928 511.508 252.405L507.558 231.808L450.448 232.992Z" fill="#3F3D56"/>
<path opacity="0.1" d="M437.977 260.715C440.632 259.042 443.485 257.57 446.499 256.319L450.448 236.669L507.558 236.71L511.508 256.082C514.752 257.387 517.811 258.956 520.633 260.762C523.169 260.311 525.941 258.635 511.508 252.405L507.558 231.808L450.448 232.992L446.499 252.642C446.499 252.642 430.162 259.407 437.977 260.715Z" fill="black"/>
<path d="M598.304 96.0321H359.095C354.099 96.0321 350.048 99.1887 350.048 103.083V228.664C350.048 232.558 354.099 235.714 359.095 235.714H598.304C603.3 235.714 607.35 232.558 607.35 228.664V103.083C607.35 99.1887 603.3 96.0321 598.304 96.0321Z" fill="#292832"/>
<path d="M598.693 103.49H358.706V208.133H598.693V103.49Z" fill="#3F3D56"/>
<path d="M478.699 101.359C479.538 101.359 480.218 100.829 480.218 100.175C480.218 99.5215 479.538 98.9915 478.699 98.9915C477.86 98.9915 477.18 99.5215 477.18 100.175C477.18 100.829 477.86 101.359 478.699 101.359Z" fill="#F2F2F2"/>
<path d="M607.35 216.419V228.664C607.351 229.59 607.117 230.507 606.662 231.362C606.207 232.217 605.541 232.995 604.701 233.649C603.861 234.304 602.864 234.824 601.766 235.178C600.668 235.532 599.492 235.714 598.304 235.714H359.095C357.907 235.714 356.731 235.532 355.633 235.178C354.535 234.824 353.538 234.304 352.698 233.649C351.858 232.995 351.191 232.217 350.737 231.362C350.282 230.507 350.048 229.59 350.048 228.664V216.419H607.35Z" fill="#292832"/>
<path d="M478.699 230.624C481.887 230.624 484.471 228.61 484.471 226.126C484.471 223.642 481.887 221.628 478.699 221.628C475.512 221.628 472.927 223.642 472.927 226.126C472.927 228.61 475.512 230.624 478.699 230.624Z" fill="#F2F2F2"/>
<path d="M469.705 273.712V276.08H306.271V274.186L306.496 273.712L310.524 265.19H466.363L469.705 273.712Z" fill="#3F3D56"/>
<path d="M532.6 271.395C532.302 272.387 531.178 273.433 528.638 274.423C519.525 277.974 500.994 273.476 500.994 273.476C500.994 273.476 486.717 271.582 486.717 266.61C487.118 266.396 487.536 266.202 487.968 266.03C491.8 264.45 504.504 260.552 527.03 266.195C528.689 266.601 530.171 267.358 531.311 268.382C531.816 268.769 532.197 269.244 532.42 269.768C532.644 270.291 532.706 270.849 532.6 271.395V271.395Z" fill="#3F3D56"/>
<path opacity="0.1" d="M532.6 271.395C521.445 274.726 511.502 274.974 501.298 269.451C496.152 266.667 491.477 265.978 487.968 266.03C491.8 264.45 504.504 260.552 527.03 266.195C528.689 266.601 530.171 267.358 531.311 268.382C531.817 268.769 532.197 269.244 532.42 269.768C532.644 270.291 532.706 270.849 532.6 271.395V271.395Z" fill="black"/>
<path d="M518.614 269.451C520.795 269.451 522.563 269.027 522.563 268.504C522.563 267.981 520.795 267.557 518.614 267.557C516.433 267.557 514.665 267.981 514.665 268.504C514.665 269.027 516.433 269.451 518.614 269.451Z" fill="#F2F2F2"/>
<path opacity="0.1" d="M469.705 273.712V276.08H306.271V274.186L306.496 273.712H469.705Z" fill="black"/>
<path d="M719.849 403.891C719.849 421.107 706.717 427.118 690.517 427.118C674.317 427.118 661.185 421.107 661.185 403.891C661.185 386.675 690.517 364.773 690.517 364.773C690.517 364.773 719.849 386.675 719.849 403.891Z" fill="#6C63FF"/>
<path d="M689.749 410.077L702.251 392.251L689.796 407.816L689.931 401.338L698.547 388.441L689.967 399.623L690.209 387.971L699.436 377.704L690.248 386.139L690.4 364.773L689.487 391.846L680.143 380.7L689.374 394.13L688.5 407.144L688.474 406.798L677.659 395.022L688.441 408.018L688.332 409.646L688.312 409.671L688.321 409.804L686.104 427.17H689.067L689.422 425.767L700.177 412.802L689.448 424.485L689.749 410.077Z" fill="#3F3D56"/>
<path d="M709.25 464.464H674.281L665.243 424.656H716.323L709.25 464.464Z" fill="#2F2E41"/>
<path d="M209.146 195.425H107.589V261.971H209.146V195.425Z" fill="#3F3D56"/>
<path d="M202.107 204.691H113.623V256.074H202.107V204.691Z" fill="#1DB6B6" fill-opacity="0.28"/>
<path d="M119.723 230.168V220.926H122.332C123.136 220.926 123.847 221.104 124.465 221.459C125.082 221.815 125.559 222.321 125.893 222.977C126.231 223.633 126.403 224.386 126.407 225.236V225.827C126.407 226.698 126.238 227.462 125.899 228.118C125.565 228.774 125.085 229.278 124.458 229.629C123.836 229.98 123.11 230.16 122.281 230.168H119.723ZM120.942 221.929V229.172H122.224C123.163 229.172 123.893 228.88 124.414 228.296C124.939 227.712 125.201 226.88 125.201 225.801V225.262C125.201 224.212 124.953 223.398 124.458 222.818C123.967 222.234 123.269 221.938 122.364 221.929H120.942ZM130.92 230.295C129.989 230.295 129.232 229.991 128.648 229.381C128.064 228.768 127.772 227.949 127.772 226.925V226.709C127.772 226.028 127.901 225.42 128.159 224.887C128.421 224.35 128.785 223.931 129.251 223.63C129.72 223.326 130.228 223.173 130.774 223.173C131.667 223.173 132.361 223.467 132.856 224.056C133.351 224.644 133.599 225.486 133.599 226.582V227.071H128.946C128.963 227.748 129.16 228.296 129.536 228.715C129.917 229.13 130.4 229.337 130.984 229.337C131.398 229.337 131.75 229.252 132.037 229.083C132.325 228.914 132.577 228.689 132.793 228.41L133.51 228.969C132.934 229.853 132.071 230.295 130.92 230.295ZM130.774 224.138C130.3 224.138 129.902 224.312 129.581 224.659C129.259 225.001 129.06 225.484 128.984 226.106H132.425V226.017C132.391 225.42 132.23 224.959 131.942 224.633C131.654 224.303 131.265 224.138 130.774 224.138ZM137.141 228.575L138.842 223.3H140.042L137.579 230.168H136.684L134.196 223.3H135.395L137.141 228.575ZM140.511 229.553C140.511 229.35 140.571 229.18 140.689 229.045C140.812 228.91 140.994 228.842 141.235 228.842C141.476 228.842 141.658 228.91 141.781 229.045C141.908 229.18 141.971 229.35 141.971 229.553C141.971 229.747 141.908 229.91 141.781 230.042C141.658 230.173 141.476 230.238 141.235 230.238C140.994 230.238 140.812 230.173 140.689 230.042C140.571 229.91 140.511 229.747 140.511 229.553ZM144.307 230.168V224.208H143.222V223.3H144.307V222.716C144.307 221.95 144.525 221.354 144.961 220.926C145.401 220.499 146.021 220.285 146.821 220.285C147.295 220.285 147.894 220.414 148.617 220.672L148.421 221.663C147.892 221.451 147.388 221.345 146.91 221.345C146.406 221.345 146.042 221.459 145.818 221.688C145.598 221.912 145.488 222.251 145.488 222.704V223.3H146.891V224.208H145.488V230.168H144.307ZM149.201 230.168H148.021V223.3H149.201V230.168ZM152.223 223.3L152.261 224.164C152.786 223.503 153.471 223.173 154.318 223.173C155.769 223.173 156.501 223.992 156.514 225.63V230.168H155.34V225.624C155.335 225.128 155.221 224.762 154.997 224.525C154.777 224.288 154.432 224.17 153.962 224.17C153.581 224.17 153.247 224.271 152.959 224.475C152.671 224.678 152.447 224.944 152.286 225.274V230.168H151.112V223.3H152.223ZM162.525 230.168C162.457 230.033 162.402 229.792 162.36 229.445C161.814 230.012 161.163 230.295 160.405 230.295C159.728 230.295 159.171 230.105 158.736 229.724C158.304 229.339 158.088 228.852 158.088 228.264C158.088 227.549 158.359 226.995 158.901 226.601C159.447 226.203 160.212 226.004 161.198 226.004H162.341V225.465C162.341 225.054 162.218 224.729 161.973 224.487C161.727 224.242 161.366 224.119 160.887 224.119C160.469 224.119 160.117 224.225 159.834 224.437C159.55 224.648 159.408 224.904 159.408 225.205H158.228C158.228 224.862 158.348 224.532 158.59 224.214C158.835 223.893 159.165 223.639 159.58 223.453C159.999 223.266 160.458 223.173 160.957 223.173C161.749 223.173 162.369 223.372 162.817 223.77C163.266 224.164 163.498 224.707 163.515 225.401V228.563C163.515 229.193 163.596 229.695 163.757 230.067V230.168H162.525ZM160.576 229.273C160.945 229.273 161.294 229.178 161.624 228.988C161.954 228.797 162.193 228.55 162.341 228.245V226.836H161.421C159.982 226.836 159.262 227.257 159.262 228.099C159.262 228.467 159.385 228.755 159.631 228.962C159.876 229.17 160.191 229.273 160.576 229.273ZM166.467 223.3L166.505 224.164C167.03 223.503 167.715 223.173 168.562 223.173C170.013 223.173 170.745 223.992 170.758 225.63V230.168H169.584V225.624C169.58 225.128 169.465 224.762 169.241 224.525C169.021 224.288 168.676 224.17 168.206 224.17C167.825 224.17 167.491 224.271 167.203 224.475C166.916 224.678 166.691 224.944 166.531 225.274V230.168H165.356V223.3H166.467ZM175.284 229.337C175.703 229.337 176.069 229.21 176.382 228.956C176.695 228.702 176.869 228.385 176.903 228.004H178.013C177.992 228.397 177.857 228.772 177.607 229.127C177.358 229.483 177.023 229.766 176.604 229.978C176.19 230.19 175.749 230.295 175.284 230.295C174.349 230.295 173.604 229.984 173.05 229.362C172.499 228.736 172.224 227.881 172.224 226.798V226.601C172.224 225.932 172.347 225.338 172.593 224.817C172.838 224.297 173.189 223.893 173.646 223.605C174.108 223.317 174.651 223.173 175.278 223.173C176.048 223.173 176.687 223.404 177.195 223.865C177.707 224.327 177.98 224.925 178.013 225.662H176.903C176.869 225.217 176.699 224.853 176.395 224.57C176.094 224.282 175.722 224.138 175.278 224.138C174.681 224.138 174.218 224.354 173.887 224.786C173.562 225.213 173.399 225.833 173.399 226.646V226.868C173.399 227.659 173.562 228.268 173.887 228.696C174.213 229.123 174.679 229.337 175.284 229.337ZM182.184 230.295C181.253 230.295 180.495 229.991 179.911 229.381C179.327 228.768 179.035 227.949 179.035 226.925V226.709C179.035 226.028 179.164 225.42 179.423 224.887C179.685 224.35 180.049 223.931 180.514 223.63C180.984 223.326 181.492 223.173 182.038 223.173C182.931 223.173 183.625 223.467 184.12 224.056C184.615 224.644 184.863 225.486 184.863 226.582V227.071H180.21C180.227 227.748 180.423 228.296 180.8 228.715C181.181 229.13 181.663 229.337 182.247 229.337C182.662 229.337 183.013 229.252 183.301 229.083C183.589 228.914 183.841 228.689 184.056 228.41L184.774 228.969C184.198 229.853 183.335 230.295 182.184 230.295ZM182.038 224.138C181.564 224.138 181.166 224.312 180.844 224.659C180.523 225.001 180.324 225.484 180.248 226.106H183.688V226.017C183.654 225.42 183.494 224.959 183.206 224.633C182.918 224.303 182.529 224.138 182.038 224.138Z" fill="white"/>
<path d="M190.772 227.788C190.772 227.399 190.635 227.071 190.36 226.804C190.089 226.538 189.63 226.296 188.982 226.081C188.081 225.806 187.423 225.448 187.008 225.008C186.598 224.563 186.392 224.001 186.392 223.319C186.392 222.625 186.593 222.056 186.995 221.612C187.402 221.167 187.958 220.903 188.665 220.818V219.428H189.611V220.825C190.322 220.922 190.874 221.22 191.267 221.72C191.665 222.219 191.864 222.903 191.864 223.77H190.696C190.696 223.173 190.554 222.699 190.271 222.348C189.987 221.997 189.604 221.821 189.122 221.821C188.618 221.821 188.233 221.952 187.967 222.215C187.7 222.473 187.567 222.835 187.567 223.3C187.567 223.732 187.706 224.077 187.986 224.335C188.269 224.589 188.733 224.822 189.376 225.033C190.023 225.241 190.527 225.471 190.886 225.725C191.25 225.975 191.517 226.267 191.686 226.601C191.86 226.935 191.947 227.327 191.947 227.775C191.947 228.491 191.731 229.066 191.299 229.502C190.872 229.938 190.271 230.196 189.496 230.276V231.489H188.557V230.276C187.77 230.204 187.152 229.925 186.703 229.438C186.259 228.948 186.037 228.283 186.037 227.445H187.211C187.211 228.034 187.366 228.486 187.675 228.804C187.983 229.121 188.421 229.28 188.989 229.28C189.543 229.28 189.979 229.146 190.296 228.88C190.614 228.613 190.772 228.249 190.772 227.788Z" fill="#1DB63E"/>
<g clip-path="url(#clip2)">
<path d="M434.626 118.289H403.853V126.422H434.626V118.289Z" fill="#6C63FF"/>
<path d="M541.192 118.289H530.365V126.422H541.192V118.289Z" fill="#6C63FF"/>
<path d="M562.847 118.289H552.02V126.422H562.847V118.289Z" fill="#6C63FF"/>
<path d="M518.967 118.289H445.453V126.422H518.967V118.289Z" fill="#6C63FF"/>
<path d="M395.874 170.837H365.101V178.969H395.874V170.837Z" fill="#6C63FF"/>
<path d="M502.441 170.837H491.613V178.969H502.441V170.837Z" fill="#6C63FF"/>
<path d="M524.096 170.837H513.268V178.969H524.096V170.837Z" fill="#6C63FF"/>
<path d="M480.216 170.837H406.702V178.969H480.216V170.837Z" fill="#6C63FF"/>
<path d="M522.956 136.431H492.183V144.563H522.956V136.431Z" fill="#6C63FF"/>
<path d="M564.557 136.431H533.784V144.563H564.557V136.431Z" fill="#6C63FF"/>
<path d="M586.212 136.431H575.385V144.563H586.212V136.431Z" fill="#6C63FF"/>
<path d="M375.929 136.431H365.101V144.563H375.929V136.431Z" fill="#6C63FF"/>
<path d="M397.584 136.431H386.756V144.563H397.584V136.431Z" fill="#6C63FF"/>
<path d="M481.925 136.431H408.412V144.563H481.925V136.431Z" fill="#6C63FF"/>
<path d="M428.357 162.079H459.13V153.947H428.357V162.079Z" fill="#6C63FF"/>
<path d="M386.757 162.079H417.53V153.947H386.757V162.079Z" fill="#6C63FF"/>
<path d="M365.101 162.079H375.929V153.947H365.101V162.079Z" fill="#6C63FF"/>
<path d="M575.384 162.079H586.212V153.947H575.384V162.079Z" fill="#6C63FF"/>
<path d="M553.729 162.079H564.557V153.947H553.729V162.079Z" fill="#6C63FF"/>
<path d="M469.388 162.079H542.902V153.947H469.388V162.079Z" fill="#6C63FF"/>
</g>
<path d="M329.189 188.363C332.812 183.041 334.385 176.612 333.623 170.242C332.861 163.872 329.814 157.983 325.036 153.642C320.257 149.302 314.063 146.798 307.576 146.584C301.09 146.37 294.741 148.46 289.68 152.476C284.619 156.492 281.182 162.167 279.992 168.473C278.802 174.779 279.938 181.297 283.193 186.846C286.449 192.395 291.609 196.607 297.737 198.719C303.865 200.83 310.557 200.701 316.597 198.355C316.989 199.737 317.721 201.001 318.728 202.034C319.735 203.067 320.986 203.837 322.368 204.276C323.75 204.714 325.22 204.807 326.648 204.546C328.075 204.285 329.415 203.678 330.547 202.78C331.679 201.882 332.567 200.72 333.134 199.399C333.7 198.078 333.926 196.639 333.791 195.211C333.657 193.782 333.166 192.409 332.363 191.214C331.56 190.019 330.469 189.039 329.189 188.363V188.363Z" fill="#6C63FF"/>
<path d="M328.802 164.258H284.559V170.155H328.802V164.258Z" fill="white"/>
<path d="M328.802 177.736H284.559V183.632H328.802V177.736Z" fill="white"/>
<path d="M328.802 189.529H284.559V192.898H328.802V189.529Z" fill="white"/>
<path d="M365.593 297.984L362.145 444.547L378.776 442.091L381.328 298.054L365.593 297.984Z" fill="#2F2E41"/>
<path d="M398.143 308.365L393.921 395.61H405.18L413.624 308.365H398.143Z" fill="#2F2E41"/>
<path d="M237.903 299.729L241.941 412.084L255.755 414.333L253.637 299.889L237.903 299.729Z" fill="#2F2E41"/>
<path d="M269.972 277.346L266.913 443.328L280.882 444.765L293.007 274.964L269.972 277.346Z" fill="#2F2E41"/>
<path d="M203.747 329.276C203.747 329.276 181.229 203.126 244.56 199.589C307.89 196.052 397.96 199.589 397.96 199.589C397.96 199.589 450.031 196.052 434.551 329.276C434.551 329.276 448.624 368.183 321.963 364.646C195.303 361.109 203.747 329.276 203.747 329.276Z" fill="#6C63FF"/>
<path d="M431.73 445.973C431.73 445.973 426.297 437.82 423.87 434.059C422.5 431.906 420.185 431.547 418.414 431.597L418.515 430.879L418.949 427.485L419.038 426.767C423.235 426.2 426.831 425.755 426.831 425.755L424.215 338.684C424.215 338.684 423.102 337.766 420.407 332.225C419.071 329.462 412.614 326.067 406.579 323.361C405.633 322.938 404.709 322.536 403.796 322.149C405.993 320.962 408.302 319.864 410.71 318.861C414.139 317.577 415.275 310.249 415.275 310.249L414.707 310.967C415.275 310.249 414.707 291.539 414.707 291.539L412.703 272.118C412.703 272.118 411.278 249.03 400.144 242.98C389.011 236.929 374.949 234.812 374.949 234.812L367.155 233.52L352.793 231.145C352.392 230.721 352.002 230.276 351.68 229.81C351.535 229.63 351.401 229.444 351.268 229.257C355.655 227.255 359.235 224.603 361.704 221.525C364.174 218.447 365.463 215.032 365.463 211.566C365.465 210.402 365.32 209.241 365.029 208.092C365.029 207.877 364.906 207.655 364.839 207.439C366.02 206.918 367.136 206.34 368.18 205.71C369.88 204.836 371.27 203.737 372.254 202.487C372.409 202.242 372.535 201.99 372.633 201.734C372.633 201.662 372.633 201.59 372.7 201.511C372.767 201.432 372.8 201.131 372.833 200.937C372.833 200.865 372.833 200.793 372.833 200.722C372.833 200.514 372.833 200.298 372.833 200.09C372.833 200.04 372.833 199.99 372.833 199.932C372.833 199.695 372.778 199.458 372.722 199.214C372.727 199.2 372.727 199.186 372.722 199.171V199.171C372.518 198.338 372.182 197.52 371.72 196.731C370.607 194.88 369.159 193.143 368.636 191.169C367.99 188.837 368.736 186.289 367.011 184.193C366.294 183.401 365.315 182.72 364.142 182.2C362.97 181.681 361.634 181.334 360.23 181.186C357.404 180.905 354.513 181.118 351.858 181.803C350.559 182.201 349.16 182.444 347.727 182.521C346.685 182.482 345.663 182.321 344.71 182.047C341.404 181.211 338.265 180.125 335.358 178.81C333.265 177.746 331.03 176.805 328.678 175.997C327.496 175.599 326.192 175.375 324.86 175.341C323.528 175.306 322.201 175.461 320.973 175.796C316.854 177.145 316.074 180.906 312.244 182.564C309.606 183.712 306.165 183.597 302.981 183.669C299.797 183.741 296.19 184.251 294.62 186.03C293.507 187.265 293.774 188.736 293.985 190.179L294.052 190.667C294.052 190.839 294.052 191.018 294.119 191.191C294.294 193.036 293.866 194.885 292.861 196.616C291.324 199.243 288.407 201.834 288.508 204.511C288.517 204.937 288.603 205.361 288.764 205.774C288.851 205.981 288.955 206.185 289.075 206.384V206.384C289.688 207.271 290.376 208.136 291.135 208.975L291.235 209.09C291.313 209.19 291.391 209.291 291.458 209.391C291.525 209.492 291.658 209.664 291.736 209.8C291.814 209.937 291.825 209.937 291.859 210.001C291.892 210.066 292.003 210.267 292.059 210.403C292.243 210.809 292.322 211.23 292.293 211.652C292.162 212.196 292.092 212.745 292.081 213.296C292.085 213.571 292.235 213.838 292.507 214.05C292.778 214.263 293.155 214.41 293.573 214.466C294.033 214.458 294.48 214.369 294.865 214.207C295.864 213.84 296.813 213.42 297.704 212.951C297.704 213.181 297.704 213.411 297.771 213.669C298.546 218.806 302.134 223.597 307.891 227.183C307.891 227.406 307.891 227.635 307.813 227.901C307.735 228.166 307.758 228.418 307.735 228.683L295.266 231.209C295.266 231.209 295.332 231.353 295.466 231.597L294.152 231.934C287.684 233.621 280.48 235.716 276.45 237.618C274.669 238.451 273.043 239.133 271.584 239.7C266.289 241.789 262.229 244.959 260.05 248.707L259.883 248.979C258.77 250.623 253.314 261.805 253.314 261.805C253.314 261.805 249.317 268.034 248.738 272.068C248.738 272.068 242.17 285.438 243.884 294.237C243.884 294.237 238.74 306.883 240.744 308.893C240.744 308.893 238.696 314.333 247.692 319.809C247.035 320.067 246.322 320.347 245.576 320.656C238.607 323.483 228.553 328.07 226.839 331.608C224.178 337.112 223.031 338.067 223.031 338.067L220.337 425.001C220.337 425.001 223.933 425.446 228.13 426.006L228.219 426.724L228.653 430.111L228.754 430.829C226.983 430.779 224.668 431.174 223.298 433.298C220.86 437.052 215.505 445.197 215.505 445.197C215.505 445.197 203.514 452.374 210.784 459.035C211.104 459.339 211.478 459.618 211.897 459.867C217.119 462.925 228.253 460.965 236.169 458.97C240.191 457.863 243.66 456.06 246.189 453.76C246.508 453.49 246.91 453.266 247.37 453.102C247.83 452.938 248.337 452.837 248.861 452.805C250.676 452.616 252.388 452.135 253.838 451.405C254.71 450.995 255.415 450.454 255.892 449.829C256.369 449.204 256.604 448.513 256.576 447.817C256.571 447.781 256.571 447.745 256.576 447.709L255.875 437.497C255.875 437.497 255.018 430.363 252.29 430.822L251.589 430.93L251.399 430.212L251.032 428.827L250.843 428.109H252.357C252.357 428.109 252.735 420.042 257.311 413.698C261.887 407.353 264.893 356.103 264.893 356.103C264.893 356.103 321.53 356.698 323.422 353.275C324.536 353.275 325.749 353.275 326.907 353.225C328.811 356.648 382.264 356.813 382.264 356.813C382.264 356.813 385.303 408.121 389.868 414.473C390.831 415.833 391.631 417.239 392.262 418.679V418.679C393.698 422.007 394.561 425.427 394.833 428.877H396.348L396.147 429.595L395.78 430.973L395.59 431.69L394.867 431.583C392.161 431.131 391.304 438.264 391.304 438.264L390.58 448.542C390.524 449.235 390.737 449.926 391.199 450.553C391.662 451.179 392.36 451.722 393.23 452.13C394.704 452.876 396.447 453.37 398.296 453.566C398.82 453.593 399.329 453.691 399.79 453.855C400.25 454.018 400.652 454.242 400.968 454.513C403.5 456.812 406.967 458.615 410.988 459.724C419.539 461.877 431.83 463.979 436.395 459.795C443.721 453.121 431.73 445.973 431.73 445.973ZM287.773 317.979H287.906H287.773ZM377.231 288.639C377.231 288.639 378.667 292.12 381.228 293.95C383.789 295.78 382.52 307.149 382.52 307.149C381.512 307.19 380.513 307.293 379.536 307.457C377.565 299.9 375.75 291.51 377.231 288.639Z" fill="url(#paint0_linear)"/>
<path d="M254.082 431.899L231.693 433.334L231.069 428.504L230.635 425.181L230.023 420.322L251.177 421.04L252.858 427.277L253.214 428.633H253.225L254.082 431.899Z" fill="#8E6F7F"/>
<path d="M417.134 421.047L416.522 425.899L416.098 429.222L415.464 434.052L393.063 432.616L393.954 429.351L394.299 428.001L395.98 421.765L417.134 421.047Z" fill="#8E6F7F"/>
<path d="M393.408 351.151L326.829 353.167C323.801 353.263 320.773 353.263 317.744 353.167L254.138 351.158V318.675H393.408V351.151Z" fill="#5F5570"/>
<path opacity="0.1" d="M393.408 351.151L326.829 353.167C323.801 353.263 320.773 353.263 317.744 353.167L254.138 351.158V318.675H393.408V351.151Z" fill="black"/>
<path d="M308.147 231.159C308.147 231.159 285.969 235.96 277.619 239.908C275.882 240.726 274.279 241.401 272.876 241.953C267.719 244.003 263.772 247.105 261.664 250.767C261.609 250.867 261.553 250.953 261.497 251.032C260.384 252.647 255.096 263.592 255.096 263.592C255.096 263.592 251.199 269.692 250.642 273.64C250.085 277.587 282.373 288.173 282.373 288.173C282.373 288.173 266.786 310.063 273.744 315.625C280.703 321.187 382.297 323.878 380.07 315.625C377.843 307.371 373.947 293.735 375.895 289.967L410.409 273.819C410.409 273.819 409.018 251.212 398.162 245.291C387.307 239.37 373.668 237.216 373.668 237.216L352.058 233.628C352.058 233.628 344.443 245.829 336.093 247.444C327.742 249.058 309.45 241.602 308.147 231.159Z" fill="#EAEAF2"/>
<path opacity="0.1" d="M339.299 251.707C339.299 251.707 329.88 256.774 324.937 251.707C324.937 251.707 320.483 260.276 324.937 263.147L324.77 263.728L323.979 266.283L313.669 321.546L322.153 330.983L337.595 318.495L336.349 266.821L335.792 263.857L335.658 263.14H338.297C338.297 263.14 345.3 255.338 339.299 251.707Z" fill="black"/>
<path opacity="0.1" d="M341.526 251.707C341.526 251.707 332.107 256.774 327.163 251.707C327.163 251.707 322.71 260.276 327.163 263.147L326.996 263.728L326.206 266.283L315.896 321.546L324.38 330.983L339.822 318.495L338.575 266.821L338.019 263.857L337.885 263.14H340.524C340.524 263.14 347.527 255.338 341.526 251.707Z" fill="black"/>
<path d="M338.709 317.785L323.267 330.251L314.76 320.864L325.081 265.573L325.872 263.018L326.05 262.429L327.442 260.104L336.772 262.429L336.905 263.147L337.462 266.111L338.709 317.785Z" fill="#BC8487"/>
<path opacity="0.1" d="M252.858 427.269C248.053 427.25 243.263 426.935 238.551 426.329C236.224 425.956 233.307 425.54 230.646 425.174L230.023 420.315L251.177 421.033L252.858 427.269Z" fill="black"/>
<path d="M323.434 353.232C321.585 356.584 266.385 355.995 266.385 355.995C266.385 355.995 263.424 406.234 258.97 412.456C254.517 418.679 254.138 426.566 254.138 426.566C254.138 426.566 244.496 426.566 238.551 425.612C232.606 424.657 222.964 423.458 222.964 423.458L225.569 338.232C225.569 338.232 226.683 337.335 229.277 331.945C230.947 328.479 240.744 323.986 247.525 321.18C251.31 319.644 254.138 318.639 254.138 318.639L287.071 319.5L307.401 320.031C307.401 320.031 325.293 349.88 323.434 353.232Z" fill="#5F5570"/>
<path opacity="0.1" d="M254.094 431.891L231.693 433.327L231.058 428.497C231.897 428.512 232.724 428.629 233.496 428.841C237.582 430.736 249.261 429.229 253.214 428.626L254.094 431.891Z" fill="black"/>
<path d="M258.324 445.851C258.351 446.532 258.12 447.207 257.653 447.818C257.186 448.43 256.495 448.959 255.641 449.36C254.232 450.073 252.566 450.544 250.798 450.731C250.288 450.759 249.793 450.857 249.346 451.018C248.898 451.179 248.509 451.399 248.204 451.664C245.729 453.914 242.339 455.68 238.406 456.767C230.691 458.719 219.835 460.635 214.747 457.642C214.327 457.402 213.954 457.129 213.634 456.831C206.542 450.286 218.232 443.281 218.232 443.281C218.232 443.281 223.51 435.3 225.881 431.626C226.137 431.149 226.546 430.713 227.082 430.345C227.617 429.977 228.267 429.686 228.989 429.491C229.711 429.296 230.488 429.201 231.271 429.213C232.053 429.225 232.823 429.342 233.53 429.559C237.983 431.626 251.488 429.645 254.127 429.207C256.766 428.769 257.612 435.745 257.612 435.745L258.324 445.743C258.319 445.779 258.319 445.815 258.324 445.851V445.851Z" fill="#BC8487"/>
<path opacity="0.1" d="M417.145 421.04L416.522 425.891C413.861 426.257 410.955 426.674 408.606 427.047C403.898 427.654 399.111 427.971 394.31 427.994L395.991 421.758L417.145 421.04Z" fill="black"/>
<path d="M424.215 424.176C424.215 424.176 414.573 425.375 408.628 426.329C402.682 427.284 393.041 427.284 393.041 427.284C393.041 427.284 392.673 419.389 388.22 413.174C383.766 406.959 380.794 356.713 380.794 356.713C380.794 356.713 328.711 356.519 326.851 353.167C324.992 349.816 349.553 320.871 349.553 320.871L364.528 320.369L393.041 319.393C393.041 319.393 398.607 321.345 404.441 323.979C410.275 326.613 416.61 329.957 417.913 332.663C420.507 338.053 421.621 338.95 421.621 338.95L424.215 424.176Z" fill="#5F5570"/>
<path opacity="0.1" d="M416.098 429.214L415.475 434.044L393.063 432.609L393.954 429.344C397.906 429.954 409.541 431.454 413.66 429.559C414.432 429.346 415.259 429.229 416.098 429.214Z" fill="black"/>
<path d="M413.66 430.277C414.368 430.059 415.138 429.94 415.922 429.928C416.706 429.915 417.485 430.01 418.208 430.205C418.931 430.4 419.582 430.691 420.118 431.06C420.655 431.428 421.064 431.866 421.32 432.344C423.68 436.018 428.969 444.006 428.969 444.006C428.969 444.006 440.659 451.004 433.567 457.549C429.114 461.654 417.134 459.594 408.806 457.484C404.87 456.402 401.478 454.635 399.008 452.382C398.701 452.116 398.31 451.896 397.861 451.735C397.412 451.574 396.915 451.476 396.403 451.449C394.594 451.246 392.894 450.752 391.46 450.013C390.617 449.611 389.941 449.081 389.493 448.47C389.044 447.859 388.836 447.186 388.888 446.511L389.589 436.463C389.589 436.463 390.424 429.48 393.063 429.918C395.702 430.355 409.207 432.344 413.66 430.277Z" fill="#BC8487"/>
<path d="M356.111 237.216L333.632 252.575L333.009 253.006L332.196 252.697C327.497 250.903 303.994 241.759 306.01 239.011C307.123 237.446 307.78 234.188 308.125 231.382C308.125 231.044 308.192 230.714 308.236 230.391C308.459 228.174 308.515 226.451 308.515 226.451C308.515 226.451 350.822 221.786 349.152 226.451C348.473 228.339 349.486 230.463 350.922 232.322C351.346 232.86 351.813 233.37 352.27 233.85C353.394 235.043 354.679 236.17 356.111 237.216V237.216Z" fill="#FFC4D0"/>
<path opacity="0.1" d="M350.922 232.322C344.611 235.32 336.849 236.772 329.028 236.419C321.207 236.065 313.837 233.928 308.236 230.391C308.459 228.174 308.515 226.451 308.515 226.451C308.515 226.451 350.822 221.786 349.152 226.451C348.506 228.353 349.486 230.463 350.922 232.322Z" fill="black"/>
<path d="M364.361 214.458C364.483 219.983 361.27 225.321 355.4 229.347C349.529 233.372 341.462 235.769 332.901 236.032C324.341 236.295 315.956 234.402 309.52 230.754C303.083 227.107 299.098 221.989 298.405 216.482C298.316 215.812 298.272 215.138 298.272 214.458C298.191 211.63 298.986 208.819 300.609 206.19C302.233 203.562 304.653 201.168 307.728 199.149C310.803 197.13 314.471 195.527 318.518 194.432C322.565 193.337 326.91 192.773 331.299 192.773C335.688 192.773 340.034 193.337 344.081 194.432C348.128 195.527 351.796 197.13 354.871 199.149C357.946 201.168 360.366 203.562 361.989 206.19C363.613 208.819 364.408 211.63 364.327 214.458H364.361Z" fill="#FFC4D0"/>
<path opacity="0.1" d="M363.949 211.056C363.089 211.508 362.092 211.838 361.021 212.024C359.951 212.211 358.832 212.251 357.736 212.14C352.637 211.423 350.889 206.399 345.679 206.054C340.468 205.71 337.006 210.36 331.728 210.267C329.501 210.231 327.497 209.291 325.449 208.638C321.864 207.497 315.963 206.801 312.089 207.662C306.266 208.946 304.295 212.42 300.576 215.183C299.941 215.654 299.245 216.088 298.494 216.482C298.405 215.812 298.361 215.138 298.361 214.458C298.285 209.073 301.378 203.869 307.016 199.895C312.654 195.92 320.419 193.471 328.747 193.04C337.075 192.608 345.348 194.227 351.898 197.57C358.448 200.913 362.79 205.732 364.049 211.056H363.949Z" fill="black"/>
<path d="M325.449 207.927C327.497 208.573 329.457 209.521 331.728 209.556C336.994 209.643 340.435 204.97 345.667 205.336C350.9 205.702 352.626 210.683 357.747 211.422C361.188 211.925 364.428 210.267 366.999 208.724C368.661 207.871 370.017 206.796 370.974 205.573C372.087 203.793 371.508 201.741 370.473 199.932C369.438 198.124 367.979 196.387 367.467 194.485C366.844 192.203 367.567 189.705 365.886 187.652C365.19 186.877 364.236 186.211 363.093 185.702C361.949 185.193 360.644 184.854 359.273 184.71C356.519 184.435 353.701 184.64 351.112 185.306C349.851 185.7 348.489 185.943 347.093 186.023C346.074 185.983 345.074 185.825 344.142 185.557C340.922 184.739 337.865 183.676 335.035 182.392C333.006 181.348 330.833 180.425 328.544 179.636C327.394 179.246 326.124 179.027 324.826 178.994C323.528 178.96 322.235 179.113 321.04 179.442C317.032 180.763 316.264 184.466 312.534 186.066C309.962 187.186 306.611 187.071 303.516 187.15C300.421 187.229 296.836 187.71 295.366 189.454C294.052 190.954 294.709 192.798 294.876 194.514C295.042 196.32 294.621 198.129 293.64 199.825C291.914 202.796 288.407 205.724 289.654 208.796C290.467 210.812 293.273 212.485 293.106 214.537C292.975 215.067 292.904 215.602 292.894 216.138C292.898 216.408 293.045 216.669 293.31 216.877C293.575 217.086 293.943 217.23 294.353 217.286C294.799 217.282 295.234 217.192 295.6 217.028C297.451 216.36 299.111 215.494 300.51 214.466C304.273 211.695 306.221 208.229 312.044 206.944C315.974 206.104 321.864 206.779 325.449 207.927Z" fill="#BC8487"/>
<path d="M363.759 333.208L357.747 334.263L343.864 336.725C340.65 338.268 337.034 339.427 333.187 340.148C324.692 341.534 319.203 338.519 314.638 333.854C312.801 331.988 313.725 330.495 316.13 329.326C321.919 326.505 336.237 325.586 340.624 325.96C343.505 326.111 346.4 325.821 349.074 325.113C350.972 324.668 352.802 324.11 354.541 323.448L363.759 333.208Z" fill="#FFC4D0"/>
<path opacity="0.1" d="M363.76 333.208L357.747 334.263C356.022 330.912 353.183 326.706 349.119 325.091C351.017 324.646 352.847 324.089 354.585 323.426L363.76 333.208Z" fill="black"/>
<path opacity="0.1" d="M404.419 323.979C401.925 325.278 399.81 326.462 399.81 326.462C399.81 326.462 370.863 332.311 365.296 339.667C365.296 339.667 360.842 325.314 351.379 325.134C351.379 325.134 361.566 322.558 364.505 320.354L393.041 319.393C393.041 319.393 398.608 321.345 404.419 323.979Z" fill="black"/>
<path d="M403.985 267.719L410.387 273.819L412.335 292.838C412.335 292.838 412.892 311.139 412.335 311.857L412.892 311.139C412.892 311.139 411.779 318.316 408.439 319.572C405.098 320.828 397.583 325.027 397.583 325.027C397.583 325.027 368.636 330.876 363.069 338.232C363.069 338.232 358.616 323.878 349.152 323.699C349.152 323.699 363.348 320.11 363.069 317.778C363.069 317.778 373.924 311.498 374.759 309.883C375.594 308.268 381.017 308.089 381.017 308.089C381.017 308.089 382.275 296.965 379.77 295.17C377.265 293.376 375.873 289.967 375.873 289.967L403.985 267.719Z" fill="#EAEAF2"/>
<path opacity="0.1" d="M333.187 340.127C324.692 341.512 319.203 338.498 314.638 333.833C312.801 331.967 313.725 330.474 316.13 329.304L316.998 329.526C316.998 329.526 332.307 333.804 333.187 340.127Z" fill="black"/>
<path d="M329.668 345.861C319.648 354.832 300.999 342.359 299.608 339.847C299.107 338.935 297.203 338.124 295.009 337.471C292.227 336.688 289.339 336.07 286.381 335.627L302.948 326.928L306.121 327.747L315.885 330.266C315.885 330.266 339.688 336.89 329.668 345.861Z" fill="#FFC4D0"/>
<path opacity="0.1" d="M306.121 327.747C296.991 330.546 295.043 334.572 294.987 337.471C292.205 336.688 289.316 336.07 286.359 335.627L302.925 326.928L306.121 327.747Z" fill="black"/>
<path opacity="0.1" d="M291.536 343.256C291.536 343.256 264.815 329.62 252.012 323.699C250.409 322.963 248.918 322.132 247.558 321.216C251.344 319.68 254.172 318.675 254.172 318.675L287.105 319.536C287.984 320.519 288.508 321.187 288.508 321.187L306.321 328.723C284.856 333.208 291.536 343.256 291.536 343.256Z" fill="black"/>
<path d="M255.909 271.666L250.62 273.64C250.62 273.64 244.218 286.737 245.888 295.35C245.888 295.35 240.878 307.73 242.827 309.704C242.827 309.704 240.321 316.342 253.125 322.263C265.929 328.184 292.649 341.821 292.649 341.821C292.649 341.821 285.969 331.773 307.401 327.287L289.588 319.751C289.588 319.751 283.609 312.101 277.897 310.421C277.897 310.421 273.444 307.551 276.227 305.577C279.011 303.603 281.237 301.45 281.237 299.477C281.237 297.503 282.351 288.173 282.351 288.173L285.691 278.125L255.909 271.666Z" fill="#EAEAF2"/>
<path opacity="0.1" d="M336.905 263.14H326.05C325.985 263.1 325.925 263.057 325.872 263.01L326.05 262.422L327.442 260.097L336.772 262.422L336.905 263.14Z" fill="black"/>
<path d="M340.412 250.989C340.412 250.989 330.993 256.056 326.05 250.989C326.05 250.989 321.597 259.558 326.05 262.429H339.41C339.41 262.429 346.413 254.621 340.412 250.989Z" fill="#BC8487"/>
<path opacity="0.1" d="M353.149 234.346L367.177 236.678C367.177 236.678 353.884 258.927 350.956 258.927L334.122 253.723L353.149 234.346Z" fill="black"/>
<path opacity="0.1" d="M356.111 237.216L333.632 252.575L333.009 253.006L332.196 252.697L351.847 233.377L352.325 233.886C353.434 235.065 354.701 236.18 356.111 237.216V237.216Z" fill="black"/>
<path d="M352.036 233.628L366.064 235.961C366.064 235.961 352.771 258.209 349.842 258.209L333.008 253.006L352.036 233.628Z" fill="#EAEAF2"/>
<path opacity="0.1" d="M307.034 231.877L294.876 234.346C294.876 234.346 306.844 257.671 310.185 258.927L331.895 253.723L307.034 231.877Z" fill="black"/>
<path opacity="0.1" d="M333.632 252.575L333.008 253.006C333.008 253.006 303.783 242.061 306.01 239.011C307.123 237.446 307.78 234.188 308.125 231.382V230.944L333.632 252.575Z" fill="black"/>
<path d="M308.147 231.159L295.989 233.628C295.989 233.628 307.958 256.953 311.298 258.209L333.009 253.006L308.147 231.159Z" fill="#EAEAF2"/>
<path opacity="0.1" d="M279.189 269.262C279.189 269.262 286.515 270.101 286.381 275.003C286.247 279.905 289.398 268.666 289.398 268.666L279.189 269.262Z" fill="black"/>
<path opacity="0.1" d="M280.859 284.333C280.859 284.333 278.821 291.747 280.859 298.45C282.896 305.154 282.718 307.421 284.299 307.78C285.88 308.139 280.859 284.333 280.859 284.333Z" fill="black"/>
<path opacity="0.1" d="M374.381 283.615C373.797 283.663 373.235 283.793 372.737 283.996C372.239 284.198 371.816 284.469 371.497 284.789C371.179 285.108 370.973 285.469 370.894 285.845C370.815 286.222 370.865 286.605 371.041 286.967C371.976 289.967 374.381 283.615 374.381 283.615Z" fill="black"/>
<path opacity="0.1" d="M247.091 308.735C247.091 308.735 270.95 307.421 274.925 310.17C278.899 312.919 247.091 308.735 247.091 308.735Z" fill="black"/>
<path opacity="0.1" d="M385.515 309.776C385.515 309.776 402.961 308.39 407.047 310.307Z" fill="black"/>
<path opacity="0.1" d="M392.573 311.606C392.573 311.606 402.961 311.842 405.377 312.682Z" fill="black"/>
<path opacity="0.1" d="M394.611 314.01C394.611 314.01 404.074 313.773 405.377 314.728Z" fill="black"/>
<path opacity="0.1" d="M261.152 347.742C261.152 347.742 269.257 350.462 268.434 353.239C267.61 356.017 261.152 347.742 261.152 347.742Z" fill="black"/>
<path opacity="0.1" d="M254.138 349.062C254.138 349.062 266.508 359.404 264.827 362.813C263.145 366.222 254.138 349.062 254.138 349.062Z" fill="black"/>
<path opacity="0.1" d="M386.728 350.777C386.728 350.777 380.605 354.029 380.772 356.713Z" fill="black"/>
<path opacity="0.1" d="M245.331 414.846C245.331 414.846 245.331 417.896 254.094 422.382Z" fill="black"/>
<path opacity="0.1" d="M399.988 407.669C399.988 407.669 399.053 414.014 390.525 417.301Z" fill="black"/>
<g opacity="0.1">
<path opacity="0.1" d="M294.876 192.332C294.876 191.837 294.742 191.327 294.676 190.825C294.534 191.921 294.586 193.023 294.831 194.112C294.908 193.52 294.922 192.925 294.876 192.332Z" fill="black"/>
<path opacity="0.1" d="M293.106 212.384C293.273 210.303 290.467 208.631 289.654 206.643C289.613 206.546 289.583 206.448 289.565 206.348C289.311 207.158 289.342 207.994 289.654 208.796C290.311 210.439 292.293 211.846 292.916 213.439C292.972 213.066 293.083 212.729 293.106 212.384Z" fill="black"/>
<path opacity="0.1" d="M370.974 203.42C370.014 204.642 368.659 205.716 366.999 206.571C364.405 208.114 361.188 209.772 357.747 209.269C352.637 208.552 350.878 203.528 345.667 203.183C340.457 202.839 336.994 207.49 331.728 207.396C329.501 207.36 327.497 206.42 325.449 205.767C321.864 204.626 315.974 203.93 312.088 204.791C306.266 206.076 304.295 209.549 300.554 212.312C299.158 213.341 297.502 214.21 295.655 214.882C295.281 215.041 294.845 215.128 294.397 215.133C294.118 215.109 293.854 215.036 293.634 214.922C293.414 214.808 293.247 214.658 293.15 214.487V214.537C293.019 215.069 292.948 215.606 292.939 216.145C292.945 216.414 293.093 216.673 293.358 216.88C293.623 217.088 293.989 217.231 294.397 217.286C294.845 217.281 295.281 217.194 295.655 217.035C297.502 216.363 299.158 215.494 300.554 214.466C304.317 211.702 306.266 208.229 312.088 206.944C316.019 206.083 321.908 206.779 325.449 207.92C327.497 208.573 329.457 209.513 331.728 209.549C336.994 209.635 340.435 204.963 345.667 205.336C350.9 205.71 352.637 210.676 357.747 211.422C361.188 211.925 364.427 210.267 366.999 208.724C368.659 207.869 370.014 206.795 370.974 205.573C371.594 204.536 371.76 203.409 371.453 202.315C371.359 202.694 371.198 203.065 370.974 203.42V203.42Z" fill="black"/>
</g>
<path opacity="0.1" d="M218.243 443.288C218.243 443.288 227.34 441.48 231.114 444.91Z" fill="black"/>
<path opacity="0.1" d="M428.969 444.006C428.969 444.006 413.905 443.439 414.495 446.066Z" fill="black"/>
</g>
<defs>
<linearGradient id="paint0_linear" x1="208.379" y1="318.754" x2="438.789" y2="318.754" gradientUnits="userSpaceOnUse">
<stop stop-color="#808080" stop-opacity="0.25"/>
<stop offset="0.54" stop-color="#808080" stop-opacity="0.12"/>
<stop offset="1" stop-color="#808080" stop-opacity="0.1"/>
</linearGradient>
<clipPath id="clip0">
<rect width="730" height="545" fill="white"/>
</clipPath>
<clipPath id="clip1">
<rect width="176.758" height="491.726" fill="white" transform="translate(58.2498 -25.9855)"/>
</clipPath>
<clipPath id="clip2">
<rect width="226.24" height="85.0773" fill="white" transform="translate(359.972 114.56)"/>
</clipPath>
</defs>
</svg>

