<svg width="1440" height="1024" viewBox="0 0 1440 1024" fill="none" xmlns="http://www.w3.org/2000/svg">
<g clip-path="url(#clip0)">
<rect width="1440" height="1024" fill="#1B3021"/>
<path opacity="0.1" d="M193.713 728.859C133.491 658.912 88.8277 580.865 48.1509 504.563C7.47404 428.26 -30.9962 351.046 -83.0634 276.73C-126.852 77.8998 -182.017 -281.656 -227.99 -303.058C-272.27 -323.643 -284.582 148.288 -312.536 162.964C-333.57 173.998 -353.882 187.644 -359.127 214.007C-362.764 232.325 -358.847 255.466 -360.319 275.248C-365.437 344.071 -433.698 360.14 -504.468 354.293C-537.66 351.564 -572.705 345.227 -603.282 347.567C-633.859 349.908 -660.362 362.126 -667.83 390.894C-675.254 419.412 -663.075 460.497 -644.684 500.325C-607.339 581.22 -545.866 660.766 -483.585 736.322C-345.768 903.53 -197.107 1062.51 -48.8265 1221.06C6.05468 1279.74 61.1786 1338.66 119.949 1392.07C152.591 1421.74 188.094 1450.72 221.969 1463.1C264.957 1478.8 298.639 1461.97 300.483 1423.83C303.577 1359.88 227.828 1259.02 242.502 1203C250.603 1172.19 284.66 1165.68 320.033 1168.04C395.894 1173.1 491.589 1209.9 539.816 1172.94C572.945 1147.56 574.513 1087.04 543.694 1023.38C511.388 956.678 443.398 885.035 382.887 868.877C320.546 852.198 246.895 790.621 193.713 728.859Z" fill="#38D39F"/>
</g>
<defs>
<clipPath id="clip0">
<rect width="1440" height="1024" fill="white"/>
</clipPath>
</defs>
</svg>
